<?xml version="1.0" encoding="UTF-8" standalone="no"?>
<!-- Created with Inkscape (http://www.inkscape.org/) -->

<svg
   xmlns:dc="http://purl.org/dc/elements/1.1/"
   xmlns:cc="http://creativecommons.org/ns#"
   xmlns:rdf="http://www.w3.org/1999/02/22-rdf-syntax-ns#"
   xmlns:svg="http://www.w3.org/2000/svg"
   xmlns="http://www.w3.org/2000/svg"
   xmlns:sodipodi="http://sodipodi.sourceforge.net/DTD/sodipodi-0.dtd"
   xmlns:inkscape="http://www.inkscape.org/namespaces/inkscape"
   width="800"
   height="500"
   id="svg2"
   sodipodi:version="0.32"
   inkscape:version="0.48.3.1 r9886"
   sodipodi:docname="stompy_logo2.svg"
   inkscape:output_extension="org.inkscape.output.svg.inkscape"
   version="1.0"
   inkscape:export-filename="G:\Art\stompyblondie\stompy_logo1.png"
   inkscape:export-xdpi="180"
   inkscape:export-ydpi="180">
  <sodipodi:namedview
     id="base"
     pagecolor="#459195"
     bordercolor="#666666"
     borderopacity="1.0"
     gridtolerance="10000"
     guidetolerance="10"
     objecttolerance="10"
     inkscape:pageopacity="1"
     inkscape:pageshadow="2"
     inkscape:zoom="1.11625"
     inkscape:cx="251.32013"
     inkscape:cy="225.64471"
     inkscape:document-units="px"
     inkscape:current-layer="layer1"
     showgrid="false"
     inkscape:window-width="1293"
     inkscape:window-height="1059"
     inkscape:window-x="625"
     inkscape:window-y="19"
     borderlayer="false"
     inkscape:window-maximized="0" />
  <defs
     id="defs4">
    <inkscape:perspective
       id="perspective10"
       inkscape:persp3d-origin="372.04724 : 350.78739 : 1"
       inkscape:vp_z="744.09448 : 526.18109 : 1"
       inkscape:vp_y="6.1230318e-14 : 1000 : 0"
       inkscape:vp_x="0 : 526.18109 : 1"
       sodipodi:type="inkscape:persp3d" />
    <inkscape:perspective
       sodipodi:type="inkscape:persp3d"
       inkscape:vp_x="0 : 526.18109 : 1"
       inkscape:vp_y="0 : 1000 : 0"
       inkscape:vp_z="744.09448 : 526.18109 : 1"
       inkscape:persp3d-origin="372.04724 : 350.78739 : 1"
       id="perspective2464" />
    <inkscape:perspective
       sodipodi:type="inkscape:persp3d"
       inkscape:vp_x="0 : 526.18109 : 1"
       inkscape:vp_y="0 : 1000 : 0"
       inkscape:vp_z="744.09448 : 526.18109 : 1"
       inkscape:persp3d-origin="372.04724 : 350.78739 : 1"
       id="perspective2574" />
  </defs>
  <metadata
     id="metadata7">
    <rdf:RDF>
      <cc:Work
         rdf:about="">
        <dc:format>image/svg+xml</dc:format>
        <dc:type
           rdf:resource="http://purl.org/dc/dcmitype/StillImage" />
        <dc:title></dc:title>
      </cc:Work>
    </rdf:RDF>
  </metadata>
  <g
     id="layer1"
     inkscape:groupmode="layer"
     inkscape:label="Layer 1"
     style="display:inline">
    <path
       style="fill:#5c5c5c;fill-opacity:1;fill-rule:evenodd;stroke:none;stroke-width:1px;stroke-linecap:butt;stroke-linejoin:miter;stroke-opacity:1"
       d="M 369.89275,419.21353 L 379.66957,280.62088 L 425.7442,284.82441 L 407.65148,421.68619 L 369.89275,419.21353 z"
       id="path3798" />
    <path
       style="fill:#ffbf00;fill-opacity:1;stroke:none;stroke-width:1.5;stroke-linecap:round;stroke-linejoin:round;stroke-miterlimit:4;stroke-dasharray:none;stroke-opacity:1"
       d="M 173.08099,114.37253 C 172.9128,116.98362 172.85722,119.65773 173.05413,122.28031 C 175.0022,127.50858 176.01855,133.12423 178.5036,138.18215 C 181.72156,144.44248 183.71705,151.3069 187.37394,157.36392 C 188.836,159.8111 190.70221,163.77822 192.46008,166.02005 C 193.14578,166.61911 194.93714,167.77967 194.49992,167.13363 C 192.50506,160.68394 189.38696,150.40774 189.46062,143.60767 C 189.36555,141.6472 189.68929,139.29537 188.037,137.85949 C 183.31108,132.82289 179.48274,126.97641 176.54127,120.72063 C 175.62886,119.36326 175.51351,117.65805 174.83238,116.19312 C 174.46538,115.51729 174.25489,113.29876 173.08099,114.37253 z"
       id="path4020"
       sodipodi:nodetypes="ccccccccccc" />
    <path
       style="fill:#ffff00;fill-opacity:1;stroke:none;stroke-width:1.5;stroke-linecap:round;stroke-linejoin:round;stroke-miterlimit:4;stroke-dasharray:none;stroke-opacity:1"
       d="M 244.48606,29.086911 C 231.07079,29.206964 217.38148,32.219445 206.10933,39.728337 C 203.11252,38.26212 199.65494,37.244046 196.43065,38.652928 C 190.31078,40.117044 185.82073,44.867907 181.79707,49.410414 C 176.31737,55.737658 172.62334,63.464804 169.80973,71.259838 C 168.07332,78.804346 165.9699,86.457536 166.37571,94.287396 C 166.52445,110.31008 168.08069,126.50841 173.03248,141.80654 C 173.75256,142.85715 176.04076,151.80834 177.65734,151.79296 C 178.68462,150.4856 174.68552,142.22713 174.79989,140.76106 C 173.39236,133.70694 172.33969,126.60352 172.55658,119.39052 C 172.61403,115.85992 172.42323,112.25283 172.87408,108.76958 C 175.77972,100.68621 182.50687,95.047896 188.33948,89.00254 C 191.21442,86.06564 193.64583,82.634505 195.12992,78.822004 C 197.77874,82.045746 200.70978,85.356776 204.8814,86.512089 C 210.66107,88.866999 216.84304,89.74586 223.05924,89.671101 C 231.47336,89.992261 240.01307,89.277406 248.33705,90.610532 C 254.35755,91.981573 259.88114,94.953168 264.54431,98.920895 C 269.95111,102.92904 274.76366,107.84709 277.77211,113.88172 C 280.05063,117.67795 280.58317,122.21815 281.77688,126.44394 C 282.64601,129.69805 282.91612,136.72465 283.70912,139.97406 C 284.59043,141.04561 285.24006,135.61238 285.17748,134.71253 C 286.62184,126.45252 286.2064,117.96429 287.48193,109.7016 C 289.85631,114.18951 291.88606,118.90114 292.15227,123.98917 C 293.0288,128.12804 292.8873,135.13035 293.27889,139.3081 C 294.07161,140.72072 295.03194,136.09771 295.1441,135.24503 C 299.04008,124.78056 300.20309,113.55938 301.75926,102.58342 C 302.2995,95.07815 302.31013,87.503067 301.73877,79.999833 C 300.23942,69.987187 297.20259,60.109417 291.96792,51.404203 C 288.10089,44.483857 281.97167,39.130716 275.03012,35.42756 C 266.64083,30.267099 256.61858,29.098566 246.95438,29.086911 C 246.13166,29.072477 245.30877,29.0723 244.48606,29.086911 z"
       id="path4018"
       sodipodi:nodetypes="ccccccccccccccccccccccccccccccc" />
    <path
       style="fill:#ffbf00;fill-opacity:1;stroke:none;stroke-width:0.6334663;stroke-linecap:round;stroke-linejoin:round;stroke-miterlimit:4;stroke-dasharray:none;stroke-opacity:1"
       d="M 252.4575,29.461738 C 250.47138,30.627401 253.34458,31.401592 254.41937,31.82801 C 260.52779,34.402214 263.60822,40.823355 266.19581,46.496043 C 268.5679,53.040551 267.94251,60.568079 265.39407,66.88574 C 260.56321,73.679334 252.64203,77.509496 244.83201,79.900983 C 236.77642,82.21814 228.64251,84.953048 220.19031,85.157284 C 214.08732,84.986574 208.03045,83.703754 202.24027,81.778568 C 200.5773,81.289798 199.34763,79.851734 197.67257,79.456087 C 195.94699,79.977744 197.56633,81.687384 198.33573,82.326481 C 201.53966,85.968358 206.50065,86.963673 210.92539,88.34502 C 221.23308,90.814135 231.9306,89.05848 242.39975,89.89197 C 246.62345,89.869969 250.67106,90.861962 254.50637,92.610411 C 261.0728,95.42183 266.5858,100.24176 271.67732,105.12553 C 274.52617,108.14222 276.79686,111.72613 278.58969,115.41507 C 281.05355,121.8978 282.65058,128.6855 283.36868,135.60694 C 285.01341,137.53914 285.2503,133.88484 285.43602,132.65115 C 286.64952,124.96772 286.23796,117.1174 287.42682,109.44676 C 289.62542,113.53307 291.63711,117.79871 292.00482,122.48359 C 292.77922,126.78468 293.08521,131.17283 293.5904,135.46258 C 295.34671,136.7664 295.48892,133.18863 296.18648,132.06349 C 299.21058,122.80607 300.01445,112.98 301.79433,103.42112 C 302.3237,97.683051 301.88843,91.866199 302.01635,86.097586 C 302.17097,78.029765 299.85593,70.161971 297.26301,62.600315 C 294.23645,54.945993 290.32182,47.230167 284.07143,41.695556 C 275.95262,35.204477 266.25223,30.033343 255.66533,29.526982 C 254.5987,29.419701 253.52774,29.415561 252.4575,29.461738 z"
       id="path2498" />
    <path
       style="fill:#f2be78;fill-opacity:1;stroke:none;stroke-width:1.5;stroke-linecap:round;stroke-linejoin:round;stroke-miterlimit:4;stroke-dasharray:none;stroke-opacity:1"
       d="M 242.85975,145.14327 C 235.83982,146.92125 228.77431,148.41297 221.58295,149.28848 C 220.394,151.31809 224.89928,153.01968 225.92489,154.85184 C 229.27741,157.97603 232.47117,161.30071 235.98972,164.23152 C 237.87633,163.94706 237.57585,161.0285 238.56961,159.76745 C 240.31127,155.08516 242.29078,150.52716 243.71488,145.7665 C 243.43842,145.51871 243.38215,144.92767 242.85975,145.14327 z"
       id="path4014" />
    <path
       style="fill:#fee1c4;fill-opacity:1;stroke:none;stroke-width:1.5;stroke-linecap:round;stroke-linejoin:round;stroke-miterlimit:4;stroke-dasharray:none;stroke-opacity:1"
       d="M 195.28815,79.862421 C 189.94483,89.822695 178.29124,96.955666 174.0725,107.7435 C 173.40414,110.60434 174.71178,113.62039 175.9132,116.17885 C 177.41204,116.96146 178.27563,114.24046 180.04392,115.04834 C 183.09891,115.60468 184.24328,119.18442 186.63857,120.84583 C 193.75095,128.13693 204.56851,130.89203 214.49268,129.27345 C 225.84965,128.34867 236.12322,122.95391 245.28021,116.49771 C 251.20232,112.8019 256.74047,107.88239 263.64377,106.26514 C 269.07506,106.34781 272.86424,111.46392 274.73147,116.0629 C 274.99505,117.02116 275.19193,120.38716 276.67293,118.96715 C 278.8916,117.38558 277.38415,114.09301 276.20983,112.38149 C 271.48363,104.46695 263.94162,98.468599 256.02006,93.959958 C 250.30803,91.023783 243.92201,90.228692 237.55514,90.453996 C 226.40408,90.080494 214.79049,91.284754 204.22978,86.8823 C 200.50247,86.198789 200.31736,82.698552 196.98677,81.417696 L 195.28815,79.862421 z M 246.61363,101.80107 C 244.0212,105.31851 240.07934,108.60301 236.7289,111.74377 C 231.31007,115.99528 225.10254,119.4083 218.9451,122.5271 C 217.44729,122.63557 219.45736,121.12626 219.91618,121.00526 C 228.05149,116.85716 235.92751,112.02713 242.24035,105.33795 C 243.64859,104.1353 244.93901,102.57711 246.61363,101.80107 z M 181.18892,102.10544 C 182.8306,103.73929 182.75267,106.62936 184.21811,108.51167 C 187.03505,113.80604 191.90118,117.57036 197.2045,120.13564 C 198.05761,120.91774 195.86115,120.46956 195.62468,120.25159 C 188.34822,117.15015 182.34837,110.12294 181.015,102.1924 C 181.07787,102.19465 181.12213,102.10447 181.18892,102.10544 z"
       id="path4012"
       sodipodi:nodetypes="cccccccccccccccccccccccccccc" />
    <path
       style="fill:#f2be78;fill-opacity:1;stroke:none;stroke-width:2;stroke-linecap:round;stroke-linejoin:round;stroke-miterlimit:4;stroke-dasharray:none;stroke-opacity:1"
       d="M 194.96648,80.876245 C 190.68496,90.184044 180.8005,95.139455 175.89282,104.06791 C 174.2467,106.36448 173.16658,109.51564 174.30954,112.22293 C 175.86538,112.84838 176.88174,110.76204 178.03115,109.986 C 179.25276,108.48518 181.37658,107.39597 181.91113,105.55174 C 181.74755,104.6181 180.83083,102.95275 181.18858,102.25573 C 182.02771,103.11388 181.94356,105.78126 183.64076,104.68069 C 188.64939,101.16346 194.43883,98.790935 200.16288,96.831678 C 206.10978,95.209754 212.33274,94.740729 218.48328,94.832572 C 223.62324,95.202045 228.98121,95.26172 233.49148,98.109091 C 236.91955,99.763582 240.0347,102.15185 243.24175,104.15184 C 244.57238,104.11254 245.00696,102.172 246.23766,101.75094 C 246.39456,102.56017 244.97034,103.29737 244.57312,104.01252 C 243.2392,105.41466 245.52692,106.84635 245.95521,108.23842 C 247.20319,109.77835 247.6329,112.57303 249.85039,112.98507 C 252.59186,112.36027 254.65667,110.09814 257.23424,109.00611 C 260.31446,107.40179 264.13004,105.38395 267.46868,107.42244 C 271.52918,109.62293 274.10249,114.05928 275.16925,118.45861 C 276.36407,119.91004 277.69703,117.34818 277.83179,116.1326 C 276.52108,111.86601 273.59495,108.21257 270.54072,105.01104 C 265.90434,100.62901 260.93252,96.354428 255.13588,93.595061 C 250.49885,91.506839 245.49511,90.405514 240.39852,90.492052 C 230.64704,90.030929 220.60325,91.280198 211.07038,89.101409 C 205.73209,87.590972 199.83456,86.048561 196.4345,81.28078 C 196.10253,80.788931 195.49453,80.445976 194.96648,80.876245 z"
       id="path3272" />
    <path
       style="fill:#fee1c4;fill-opacity:1;stroke:none;stroke-width:1.5;stroke-linecap:round;stroke-linejoin:round;stroke-miterlimit:4;stroke-dasharray:none;stroke-opacity:1"
       d="M 375.14405,149.29703 C 366.72673,150.13837 360.04411,157.39902 357.41821,165.06621 C 356.5682,167.81982 358.21263,170.77117 360.4474,172.2551 C 362.19598,170.02395 362.07603,166.35487 364.25925,164.1531 C 364.51981,163.37755 366.01468,163.36758 365.18685,164.26905 C 362.89591,167.65755 361.39845,172.04748 362.02722,176.15391 C 363.93647,181.59541 370.28535,184.7593 375.85424,183.42977 C 384.69721,182.42411 391.01605,173.81019 390.85525,165.18216 C 391.42832,159.13 387.68635,153.47766 382.31844,150.89134 C 380.12685,149.72689 377.63101,149.13498 375.14405,149.29703 z"
       id="path4010" />
    <path
       style="fill:#f2be78;fill-opacity:1;stroke:none;stroke-width:2;stroke-linecap:round;stroke-linejoin:round;stroke-miterlimit:4;stroke-dasharray:none;stroke-opacity:1"
       d="M 384.63566,152.54797 C 383.38882,153.77092 385.14377,155.54519 384.81382,157.05152 C 385.25537,164.0584 382.64446,171.63704 376.58866,175.6299 C 375.18042,176.59931 373.22604,177.82227 370.32345,177.19803 C 367.19883,176.37409 364.80072,174.91164 363.94903,171.11645 C 363.70197,169.44389 361.61291,170.60671 361.78139,171.8588 C 360.43165,176.0298 363.30474,180.14112 366.79963,182.17242 C 372.34184,185.7557 379.78046,183.77065 384.581,179.85025 C 389.61665,175.69573 391.66325,168.6891 391.04951,162.3469 C 390.55413,158.50909 388.59479,154.59477 385.25923,152.50838 C 385.05377,152.43277 384.84373,152.53371 384.63566,152.54797 z"
       id="path3287"
       sodipodi:nodetypes="ccccccccccc" />
    <path
       style="fill:#fee1c4;fill-opacity:1;stroke:none;stroke-width:1.5;stroke-linecap:round;stroke-linejoin:round;stroke-miterlimit:4;stroke-dasharray:none;stroke-opacity:1"
       d="M 95.08166,150.0652 C 86.808201,150.5524 80.45958,158.08656 78.747223,165.73292 C 78.048445,172.56822 79.061967,180.28486 84.588197,184.99509 C 88.247301,188.07559 93.482892,186.54956 97.849962,186.64738 C 102.87077,186.38808 107.34211,181.85825 106.41576,176.6467 C 106.26206,170.12667 100.50076,165.52953 97.458632,160.67461 C 101.74146,164.35935 105.88411,169.10961 107.16943,174.69005 C 106.76541,176.55134 108.891,178.50223 110.38704,176.79164 C 113.75822,173.27947 112.82672,167.84942 112.5611,163.42842 C 110.5083,155.74909 103.20716,149.65522 95.08166,150.0652 z"
       id="path4008" />
    <path
       style="fill:#f2be78;fill-opacity:1;stroke:none;stroke-width:2;stroke-linecap:round;stroke-linejoin:round;stroke-miterlimit:4;stroke-dasharray:none;stroke-opacity:1"
       d="M 108.93408,157.00203 C 107.80214,158.28 109.15153,160.28553 108.42929,161.78272 C 108.17409,163.35591 106.93864,164.76781 105.22236,164.44526 C 102.88659,163.89738 101.6156,165.73017 103.59693,167.37394 C 105.59428,170.1404 106.91619,173.34416 107.36031,176.71867 C 107.81286,178.67296 110.23372,177.78398 110.93346,176.48112 C 113.98023,172.44967 113.75588,166.77989 112.36529,162.14614 C 111.63593,160.34569 111.01331,158.26397 109.55765,156.94264 L 109.24234,156.97267 L 108.93408,157.00203 z"
       id="path3283" />
    <path
       style="fill:#f2be78;fill-opacity:1;stroke:none;stroke-width:2;stroke-linecap:round;stroke-linejoin:round;stroke-miterlimit:4;stroke-dasharray:none;stroke-opacity:1"
       d="M 100.53075,165.37566 C 99.228926,166.21376 100.64343,167.88499 100.36249,169.09728 C 100.62985,173.46614 98.995633,178.06615 95.858939,181.15293 C 92.978387,183.08285 89.079393,183.62011 85.822457,182.43966 C 84.481729,182.05879 83.117692,180.43769 81.675232,181.13314 C 81.095592,182.68012 83.000976,183.91887 83.971548,184.89435 C 86.176118,186.82555 89.088353,187.47555 91.959162,187.21046 C 96.45913,187.14106 101.95735,187.36039 104.92543,183.28099 C 108.0341,178.82818 106.84121,172.69865 103.76374,168.564 C 102.83172,167.53316 102.18427,165.3027 100.53075,165.37566 z"
       id="path3281" />
    <path
       style="fill:#7b13a6;fill-opacity:1;stroke:none;stroke-width:1.5;stroke-linecap:round;stroke-linejoin:round;stroke-miterlimit:4;stroke-dasharray:none;stroke-opacity:1"
       d="M 319.37585,89.471629 C 313.55864,89.625935 307.63999,91.410232 302.85631,94.577091 C 302.82154,100.33778 301.91895,106.14073 301.17173,111.87894 C 302.39032,113.40559 304.59398,110.853 306.20105,110.5745 C 312.65872,107.65349 320.65256,107.28189 326.62272,111.61805 C 336.73696,118.65144 344.37551,128.54938 351.77624,138.15453 C 355.74783,143.21202 359.09574,148.89211 363.23389,153.72234 C 366.27971,151.47144 369.48426,149.45715 373.16209,148.34517 C 374.2332,146.91941 371.89824,144.89548 371.53691,143.38546 C 363.11605,128.63236 355.04576,113.3729 343.71297,100.59735 C 338.29466,94.076508 330.30363,89.671624 321.72435,89.507889 C 320.94209,89.468127 320.15906,89.441338 319.37585,89.471629 z"
       id="path4006" />
    <path
       style="fill:#462365;fill-opacity:1;stroke:none;stroke-width:1;stroke-linecap:round;stroke-linejoin:round;stroke-miterlimit:4;stroke-dasharray:none;stroke-opacity:1"
       d="M 320.39319,89.199815 C 319.69315,91.058272 322.74746,91.029642 323.91685,91.78317 C 331.75389,94.873785 337.49718,101.26616 342.99063,107.32388 C 348.42301,114.44421 353.41634,121.90097 357.69344,129.75007 C 361.31225,135.56834 364.5498,141.59405 367.88481,147.56798 C 368.54086,148.80869 369.83402,150.3578 371.34889,149.23276 C 372.47218,148.97427 374.28279,148.22666 373.4163,146.76607 C 369.05286,137.34114 363.40294,128.54846 358.03365,119.695 C 351.88687,109.9332 345.40537,99.941053 335.81412,93.277754 C 331.27084,90.606962 325.94367,89.019812 320.68811,89.096591 L 320.39319,89.199815 z"
       id="path3315" />
    <path
       style="fill:#462365;fill-opacity:1;stroke:none;stroke-width:1;stroke-linecap:round;stroke-linejoin:round;stroke-miterlimit:4;stroke-dasharray:none;stroke-opacity:1"
       d="M 305.91255,104.34362 C 304.44883,104.61679 301.70837,103.91244 301.89676,106.20457 C 301.71194,108.10648 301.21927,110.07201 301.05267,111.92542 C 301.72846,113.73798 303.85819,111.74441 304.92275,111.43052 C 308.68563,109.68028 312.72598,108.6104 316.86953,108.48095 C 318.77299,107.21779 315.71356,106.35426 314.63261,105.89759 C 311.88306,104.78162 308.88334,104.23777 305.91255,104.34362 z"
       id="path3313" />
    <path
       style="fill:#7b13a6;fill-opacity:1;stroke:none;stroke-width:1.5;stroke-linecap:round;stroke-linejoin:round;stroke-miterlimit:4;stroke-dasharray:none;stroke-opacity:1"
       d="M 142.94476,89.701812 C 131.2106,90.182792 120.96625,97.891342 114.08774,106.87688 C 105.10546,119.33388 98.798321,133.53264 92.883409,147.64775 C 92.32338,149.90005 95.620461,148.89928 96.941651,149.25655 C 99.861861,149.38624 102.54179,150.57105 105.17409,151.60454 C 107.83375,150.08908 109.13882,146.73605 111.12631,144.43812 C 118.65666,134.18147 125.81448,122.851 136.66897,115.81951 C 140.92798,113.05034 145.8194,111.39596 150.9453,111.97867 C 156.92923,112.19919 161.23833,117.10608 166.17821,119.90674 C 168.02716,119.67501 166.61545,116.88549 166.86345,115.60378 C 166.23222,110.12313 166.04522,104.50241 165.62745,99.079252 C 159.4031,93.422402 151.59596,89.228632 142.94476,89.701812 z"
       id="path4004" />
    <path
       style="fill:#462365;fill-opacity:1;stroke:none;stroke-width:0.5;stroke-linecap:round;stroke-linejoin:round;stroke-miterlimit:4;stroke-dasharray:none;stroke-opacity:1"
       d="M 146.15074,104.48276 C 138.475,104.54091 131.6898,109.01847 126.31533,114.14312 C 119.45291,122.25179 113.62353,131.21301 107.62807,139.97667 C 105.63685,143.27474 103.09237,146.42762 101.83779,150.05275 C 102.95171,150.94397 105.29496,152.7248 106.5393,151.11182 C 112.98718,142.95658 118.34515,133.98899 125.31564,126.24827 C 131.02496,119.72253 138.22181,113.64668 147.01186,111.95569 C 154.41404,110.99235 160.79025,116.06829 166.21381,120.44809 C 168.40117,120.84516 166.97527,117.82368 167.09922,116.56154 C 166.69415,114.16256 167.37955,110.85221 164.65983,109.61978 C 159.15478,106.52774 152.86057,104.6482 146.52686,104.47287 L 146.21024,104.4812 L 146.15074,104.48276 z"
       id="path3301" />
    <path
       style="fill:#5c5c5c;fill-opacity:1;fill-rule:evenodd;stroke:none;stroke-width:1px;stroke-linecap:butt;stroke-linejoin:miter;stroke-opacity:1"
       d="M 138.71204,418.96626 L 138.93679,340.70654 L 210.07154,335.76122 L 206.47546,419.83169 L 138.71204,418.96626 z"
       id="path3792"
       sodipodi:nodetypes="ccccc" />
    <path
       style="fill:#5c5c5c;fill-opacity:1;fill-rule:evenodd;stroke:none;stroke-width:1px;stroke-linecap:butt;stroke-linejoin:miter;stroke-opacity:1"
       d="M 289.197,411.17738 L 284.47716,321.29615 L 365.61347,320.30709 L 361.34314,416.74087 L 289.197,411.17738 z"
       id="path3796" />
    <path
       style="fill:#7b13a6;fill-opacity:1;stroke:none;stroke-width:1.5;stroke-linecap:round;stroke-linejoin:round;stroke-miterlimit:4;stroke-dasharray:none;stroke-opacity:1"
       d="M 278.0372,118.05046 C 271.23119,127.45963 262.64932,135.95655 252.04994,141.05202 C 250.18126,142.35777 247.70473,142.83277 245.94807,144.08121 C 242.34115,151.17511 240.23449,159.03237 236.88949,166.3001 C 230.75579,160.74852 224.96788,154.69187 218.75783,149.28446 C 213.42577,149.50356 208.25096,148.44527 203.1046,147.25533 C 201.38407,148.4277 204.63194,149.72104 205.35254,150.63024 C 210.40239,154.88036 216.74597,158.09281 219.93182,164.08256 C 222.13014,169.9748 218.87296,176.18135 219.38106,182.2432 C 219.65398,189.55667 226.62755,193.58769 231.89325,197.38359 C 236.97861,200.80351 240.0317,206.38228 242.0501,212.0806 C 244.01438,216.2778 244.51856,220.98773 246.23795,225.2606 C 248.98813,226.98788 252.60959,227.36755 255.22406,229.10144 C 252.45985,228.95138 249.40555,227.16761 246.59667,226.36413 C 230.63922,220.75928 213.90835,213.80604 196.59692,216.17303 C 189.42653,217.02469 186.13291,224.35757 183.88825,230.30599 C 180.97201,238.85569 179.00101,247.80931 178.08842,256.76997 C 179.5496,258.99852 182.94645,258.41836 185.10339,259.58176 C 188.3388,260.35434 191.16856,262.36726 194.35039,263.21969 C 196.07842,262.42281 195.87121,259.77719 197.04622,258.36429 C 199.16453,254.57663 201.17761,250.18861 205.00328,247.87082 C 209.90177,246.95588 214.84497,248.98924 219.69993,249.65355 C 230.81446,251.99302 242.07329,254.22959 251.9483,260.08201 C 263.80639,266.5741 274.9848,274.71947 282.61092,286.03374 C 292.067,298.55108 297.99461,313.14617 302.82114,327.93224 C 306.02147,336.89788 308.57599,346.12467 311.30031,355.16792 C 312.45823,357.30271 315.19428,354.9848 316.9594,355.10998 C 320.38996,354.08127 324.39212,354.01048 327.37386,351.9938 C 327.87748,349.06068 326.84168,345.88937 326.96489,342.86476 C 325.71059,318.4207 317.24256,295.19131 311.31481,271.68403 C 309.00101,259.2066 308.82675,245.66987 301.53463,234.7274 C 291.75292,217.56988 290.33882,197.4249 286.18267,178.46034 C 283.03986,164.95573 277.31387,152.16069 270.68888,140.02296 C 274.28037,136.12654 278.57966,132.64401 281.74759,128.50044 C 280.86571,124.97079 280.53421,121.05964 278.57347,117.978 L 278.11384,118.04011 L 278.0372,118.05046 z"
       id="path3968" />
    <path
       style="fill:#462365;fill-opacity:1;stroke:none;stroke-width:1;stroke-linecap:round;stroke-linejoin:round;stroke-miterlimit:4;stroke-dasharray:none;stroke-opacity:1"
       d="M 277.85313,118.40436 C 275.30337,121.02119 273.36715,124.23256 270.67714,126.7483 C 265.33447,132.5878 259.14273,137.5683 252.0156,141.04822 C 249.80616,142.38575 246.99674,142.89074 245.09104,144.64372 C 243.46342,148.58177 241.89593,152.56902 240.76566,156.65979 C 241.39837,158.4171 243.41436,156.70007 244.49806,156.3042 C 250.41833,153.30771 257.70308,152.8492 263.93667,155.24439 C 271.50157,158.46647 275.72192,166.47277 278.07088,173.93164 C 283.49677,191.49723 284.35497,210.15389 290.00788,227.66927 C 292.55961,235.31948 295.34548,242.9893 299.33805,249.97672 C 304.37125,260.86374 305.93408,272.90327 309.34281,284.3712 C 315.22309,304.87615 320.56102,325.61191 322.68164,346.89127 C 323.18746,348.8757 322.64375,351.3276 323.87842,353.03435 C 324.96633,353.43986 326.81001,353.12113 327.30309,351.98517 C 327.52164,343.88 326.48425,335.76611 325.34242,327.74921 C 322.40852,309.26537 316.61763,291.41042 311.6446,273.41555 C 309.39596,262.46026 309.43635,250.84537 304.66301,240.50422 C 301.78777,234.84146 298.32605,229.41662 296.27314,223.3915 C 288.88634,203.64696 289.23095,181.82753 281.25627,162.20548 C 278.32302,154.49731 274.59297,147.15535 270.79592,139.83334 C 274.38039,136.26759 278.2532,132.89772 281.65626,129.20725 C 281.27856,125.7603 280.33174,122.16856 279.02108,118.88936 C 278.81475,118.41966 278.33591,118.2505 277.85313,118.40436 z"
       id="path3345" />
    <path
       style="fill:#462365;fill-opacity:1;stroke:none;stroke-width:1;stroke-linecap:round;stroke-linejoin:round;stroke-miterlimit:4;stroke-dasharray:none;stroke-opacity:1"
       d="M 204.94395,237.40447 C 200.78598,237.38548 198.67727,241.57549 197.21368,244.8477 C 194.82763,250.11829 192.1863,255.32975 190.44351,260.84272 C 190.93465,262.33927 192.91551,262.84672 194.274,263.3469 C 195.94193,262.92077 195.68914,260.63513 196.53073,259.41743 C 198.517,255.3617 200.75509,251.0968 204.29069,248.28228 C 207.37424,246.60732 210.97031,248.37175 214.1787,248.6485 C 225.60458,251.04962 237.29933,252.84868 247.8626,257.97472 C 255.05118,261.31061 261.45531,266.11902 267.96395,270.55258 C 269.42105,271.08249 269.52757,269.07922 268.49844,268.50371 C 263.33662,263.01918 258.0491,257.56888 252.2135,252.80322 C 245.54424,248.294 238.36428,244.20639 230.38114,242.60324 C 222.12637,240.6829 213.88452,238.50989 205.48834,237.39457 C 205.30688,237.39787 205.12516,237.38794 204.94395,237.40447 z"
       id="path3337" />
    <path
       style="fill:#462365;fill-opacity:1;stroke:none;stroke-width:1;stroke-linecap:round;stroke-linejoin:round;stroke-miterlimit:4;stroke-dasharray:none;stroke-opacity:1"
       d="M 222.64142,182.52132 C 220.23284,182.78277 219.64114,185.70424 220.74102,187.51976 C 224.38088,194.45742 233.05801,196.33745 237.21114,202.82193 C 241.248,209.19926 243.75302,216.43657 245.35712,223.76591 C 245.4668,225.69201 247.67607,226.38238 249.2668,226.38886 C 250.41768,225.18863 249.18194,223.26023 249.09854,221.82592 C 246.81493,213.34983 246.06165,204.2826 241.6949,196.52686 C 239.14103,192.23281 233.82902,191.08646 230.23925,187.89104 C 227.72062,186.32985 226.11522,183.41868 223.23529,182.52132 C 223.03838,182.50589 222.83826,182.50446 222.64142,182.52132 z"
       id="path3331" />
    <path
       style="fill:#462365;fill-opacity:1;stroke:none;stroke-width:1;stroke-linecap:round;stroke-linejoin:round;stroke-miterlimit:4;stroke-dasharray:none;stroke-opacity:1"
       d="M 251.59281,183.29526 C 249.86229,183.08384 249.5882,185.25896 250.53373,186.29432 C 252.7022,190.29058 256.59482,193.3085 261.15419,193.92561 C 262.2702,194.11657 263.20642,195.11779 264.38091,194.34132 C 265.92308,193.75963 268.65978,192.55414 267.67691,190.46134 C 265.01078,187.28246 260.22925,187.82418 256.93768,185.62126 C 255.26056,184.68484 253.65544,183.15667 251.59281,183.29526 z"
       id="path3321" />
    <path
       style="fill:#462365;fill-opacity:1;stroke:none;stroke-width:1;stroke-linecap:round;stroke-linejoin:round;stroke-miterlimit:4;stroke-dasharray:none;stroke-opacity:1"
       d="M 202.44968,147.1026 C 201.12662,148.55467 203.78869,149.36342 204.57074,150.29568 C 208.51614,153.6617 213.07659,156.27835 216.76206,159.93029 C 218.73393,161.93728 220.08962,164.52286 220.8202,167.14587 C 222.23856,167.87795 223.55319,166.12264 225.03671,166.14618 C 227.68447,165.30986 230.47074,165.22439 233.1431,164.71098 C 234.51055,163.39099 232.05892,162.21679 231.43076,161.19722 C 227.36438,157.21287 223.31262,153.11932 219.04381,149.38438 C 213.81475,149.07253 208.44905,148.91149 203.48896,147.12239 C 203.14902,147.04829 202.78816,146.95489 202.44968,147.1026 z"
       id="path3311" />
    <path
       style="fill:#3b5263;fill-opacity:1;stroke:none;stroke-width:0.47675975999999998;stroke-linecap:round;stroke-linejoin:round;stroke-miterlimit:4;stroke-dasharray:none;stroke-opacity:1"
       d="M 190.02759,338.53463 C 184.00688,341.52158 174.63508,346.06162 168.92094,349.22814 C 170.64294,349.78973 173.37995,350.30202 174.26157,350.53805 C 177.76622,350.77828 182.21293,351.29362 184.92228,350.62261 C 187.88851,348.13094 190.12479,344.27499 190.44475,340.893 C 190.31774,339.99396 190.29009,338.31258 190.02759,338.53463 z"
       id="path3943"
       sodipodi:nodetypes="cccccc" />
    <path
       style="fill:#3b5263;fill-opacity:1;stroke:none;stroke-width:0.47675975999999998;stroke-linecap:round;stroke-linejoin:round;stroke-miterlimit:4;stroke-dasharray:none;stroke-opacity:1"
       d="M 163.81573,306.81751 C 156.9019,312.20958 149.34907,317.79927 142.42713,323.00849 C 139.11293,325.5957 134.86438,328.76303 131.62764,331.42673 C 133.415,332.58553 136.22584,333.83403 138.28416,334.91988 C 142.14981,332.18565 144.96684,330.3613 148.1915,327.75637 C 157.66576,321.10344 159.35668,320.22885 168.82576,313.55769 C 167.71085,311.79364 166.82008,310.7555 165.81292,309.32523 C 165.30031,308.71753 164.84092,307.92873 163.81573,306.81751 z"
       id="path3933"
       sodipodi:nodetypes="cccccccc" />
    <path
       style="fill:#3b5263;fill-opacity:1;stroke:none;stroke-width:0.47675975999999998;stroke-linecap:round;stroke-linejoin:round;stroke-miterlimit:4;stroke-dasharray:none;stroke-opacity:1"
       d="M 186.6108,330.97202 C 178.71536,335.60497 169.37569,340.75436 161.50141,345.47953 C 162.6205,346.33587 164.74146,347.55142 165.66759,348.16461 C 166.94813,348.71621 168.17321,348.88406 169.20603,348.86897 C 175.95432,345.44069 183.12594,341.88187 189.88916,338.47395 C 189.80834,336.36634 188.42488,333.96946 187.465,332.02898 C 187.19938,331.75897 186.98342,330.84032 186.6108,330.97202 z"
       id="path3941"
       sodipodi:nodetypes="ccccccc" />
    <path
       style="fill:#3b5263;fill-opacity:1;stroke:none;stroke-width:0.47675975999999998;stroke-linecap:round;stroke-linejoin:round;stroke-miterlimit:4;stroke-dasharray:none;stroke-opacity:1"
       d="M 174.11638,319.74331 C 165.3862,325.70881 154.68027,332.89608 146.24361,338.55147 C 148.2868,339.758 152.43802,341.13492 154.08616,342.0627 C 156.61223,340.30043 159.65676,338.49276 162.00792,336.98229 C 170.03515,332.09023 174.21106,329.69308 181.59571,324.95294 C 180.23479,323.88893 178.81576,323.56486 178.10859,322.80169 C 176.80356,322.15218 175.39163,320.65792 174.11638,319.74331 z"
       id="path3937"
       sodipodi:nodetypes="ccccccc" />
    <path
       style="fill:#6286a0;fill-opacity:1;stroke:none;stroke-width:0.47675975999999998;stroke-linecap:round;stroke-linejoin:round;stroke-miterlimit:4;stroke-dasharray:none;stroke-opacity:1"
       d="M 169.74543,258.71723 C 167.51826,261.84717 168.51742,265.94073 168.08282,269.52349 C 167.96574,273.13895 167.82922,276.97123 165.80223,280.0721 C 165.59306,281.89371 167.7063,283.0427 168.31839,284.63476 C 171.61289,289.92317 175.05593,295.2171 177.27426,301.0396 C 176.99598,301.97182 176.24186,300.73004 176.15189,300.26486 C 173.06814,293.57396 169.48537,286.95045 164.75931,281.28386 C 163.60905,280.09004 162.54004,278.22632 161.17274,277.01142 C 157.51335,272.91511 153.20538,269.25213 147.95353,267.3883 C 143.84241,265.76823 139.03448,265.31548 134.82277,266.71289 C 127.78573,270.76544 122.69186,277.56454 119.12813,284.74217 C 117.80061,288.04956 116.11598,291.33212 115.43454,294.82185 C 116.36356,296.28939 118.05075,294.39484 119.13936,294.02725 C 126.37483,290.1907 135.09806,290.40354 142.82836,292.6665 C 145.88277,293.43665 149.07732,294.36431 151.84707,295.60652 C 155.16927,298.23328 158.93941,300.3382 161.77956,303.58231 C 167.8059,309.3256 171.33699,317.50299 178.45622,322.07662 C 182.15644,324.4204 185.48998,327.23728 187.63385,331.08539 C 188.91091,333.19491 190.3535,335.33355 190.83211,337.77989 C 192.07388,339.10802 192.47689,336.53113 192.67956,335.704 C 194.27739,328.24706 196.67645,321.02594 199.25341,313.86337 C 202.30353,305.12867 204.7376,295.54307 211.82941,289.07094 C 212.70468,287.85491 214.79239,287.46324 215.11706,285.99187 C 213.47717,280.70062 210.89852,275.48829 206.37647,272.08637 C 199.43121,267.23276 192.06631,262.66257 183.93896,260.07799 C 179.46156,258.70401 174.62786,258.16069 170.01483,258.56539 L 169.74543,258.71723 z"
       id="path3921" />
    <path
       style="fill:#3b5263;fill-opacity:1;stroke:none;stroke-width:1;stroke-linecap:round;stroke-linejoin:round;stroke-miterlimit:4;stroke-dasharray:none;stroke-opacity:1"
       d="M 210.38921,276.88229 C 203.52185,284.09863 197.26324,292.15854 193.63205,301.52808 C 190.28634,309.75937 186.51649,317.99031 184.79338,326.71435 C 186.83545,330.26375 189.41634,333.64002 190.72206,337.60597 C 192.31498,338.73129 192.43901,336.02039 192.72944,335.02001 C 194.80149,324.9455 198.67342,315.41365 201.93752,305.66533 C 204.48076,298.58772 207.75125,291.15686 214.30891,286.87618 C 215.98722,285.70439 213.96472,283.72451 213.69626,282.23002 C 212.82951,280.43719 212.34799,278.30581 211.01278,276.8229 L 210.69747,276.85293 L 210.38921,276.88229 z"
       id="path3862" />
    <path
       style="fill:none;stroke:#000000;stroke-width:2;stroke-linecap:round;stroke-linejoin:miter;stroke-miterlimit:4;stroke-opacity:1;stroke-dasharray:none;stroke-dashoffset:0;marker:none;visibility:visible;display:inline;overflow:visible;enable-background:accumulate"
       d="m 164.51469,280.04916 c 6.26574,-6.02143 -0.002,-18.32127 5.47444,-22.45904 10.03872,-0.2751 20.82561,3.62011 29.11221,9.14588 6.81271,4.75182 12.6376,9.71065 14.69382,15.71707 l 1.05272,3.06703 0.30579,1.26303"
       id="path3735"
       sodipodi:nodetypes="cccccc"
       inkscape:connector-curvature="0" />
    <path
       style="fill:#3b5263;fill-opacity:1;stroke:none;stroke-width:0.47675975999999998;stroke-linecap:round;stroke-linejoin:round;stroke-miterlimit:4;stroke-dasharray:none;stroke-opacity:1"
       d="M 130.59148,291.48358 C 125.09857,296.81345 119.52703,301.85027 114.06381,307.13446 C 114.28815,308.87196 115.40551,312.61199 116.45364,314.01286 C 118.87908,311.9218 123.21158,308.21235 125.6518,306.17593 C 130.17496,302.32469 135.69447,298.01549 141.4951,292.93409 C 139.81391,292.33563 138.2504,291.92833 136.24823,291.6723 C 134.0122,291.60313 132.78054,291.20794 130.59148,291.48358 z"
       id="path3925"
       sodipodi:nodetypes="ccccccc" />
    <path
       style="fill:#3b5263;fill-opacity:1;stroke:none;stroke-width:0.47675975999999998;stroke-linecap:round;stroke-linejoin:round;stroke-miterlimit:4;stroke-dasharray:none;stroke-opacity:1"
       d="M 181.38629,325.33241 C 172.65188,330.65926 162.86525,336.52719 154.12349,341.86856 C 155.78943,342.88127 159.47368,344.28445 161.35485,345.74557 C 163.67859,344.27469 165.35343,343.32816 167.42179,342 C 175.57478,337.339 178.99496,335.28176 186.8592,330.91009 C 185.78336,329.23043 184.4044,328.13343 183.55478,326.93582 C 183.03737,326.52848 182.18766,325.00935 181.38629,325.33241 z"
       id="path3939"
       sodipodi:nodetypes="ccccccc" />
    <path
       style="fill:#3b5263;fill-opacity:1;stroke:none;stroke-width:0.47675975999999998;stroke-linecap:round;stroke-linejoin:round;stroke-miterlimit:4;stroke-dasharray:none;stroke-opacity:1"
       d="M 168.82966,313.39146 C 159.68185,319.80488 147.57881,328.15055 138.18435,334.94556 C 139.66731,335.74353 141.03,336.41565 141.90464,336.85617 C 143.53744,337.43825 145.06238,338.09844 146.45762,338.65585 C 155.11812,332.59363 165.48162,325.64318 174.20259,319.86435 C 172.99563,318.6328 171.36112,317.39295 170.62364,316.00288 C 170.06213,315.53306 169.63936,314.6357 168.82966,313.39146 z"
       id="path3935"
       sodipodi:nodetypes="ccccccc" />
    <path
       style="fill:#3b5263;fill-opacity:1;stroke:none;stroke-width:0.47675975999999998;stroke-linecap:round;stroke-linejoin:round;stroke-miterlimit:4;stroke-dasharray:none;stroke-opacity:1"
       d="M 150.75246,295.8543 C 146.32133,299.5997 141.94733,303.09027 137.36523,306.62109 C 131.74165,311.19024 125.26653,316.15586 119.80012,320.87973 C 121.16336,322.7692 123.24932,325.24052 124.69047,326.55492 C 127.61339,324.27062 135.0526,318.55523 136.63716,317.13648 C 141.90543,313.2451 148.51116,308.41196 157.99078,301.14208 C 156.68471,299.98402 155.14429,299.21188 154.28053,298.39755 C 153.28014,297.86708 152.24005,296.78593 150.75246,295.8543 z"
       id="path3929"
       sodipodi:nodetypes="cccccccc" />
    <path
       style="fill:#3b5263;fill-opacity:1;stroke:none;stroke-width:0.47675975999999998;stroke-linecap:round;stroke-linejoin:round;stroke-miterlimit:4;stroke-dasharray:none;stroke-opacity:1"
       d="M 141.32444,292.67726 C 134.49764,298.75724 130.73944,301.82944 123.89397,307.46074 C 122.26599,308.99263 120.11884,310.64957 116.4059,313.93055 C 116.64343,315.7703 118.76947,319.45773 119.83869,320.98458 C 122.77829,318.79554 126.06053,315.90777 128.86684,313.7474 C 137.78403,306.54967 141.81973,303.21809 150.56924,296.12931 C 148.72919,294.84052 147.62015,294.62954 146.59507,294.02772 C 145.38941,293.74244 143.43883,293.28601 141.32444,292.67726 z"
       id="path3927"
       sodipodi:nodetypes="cccccccc" />
    <path
       style="fill:#3b5263;fill-opacity:1;stroke:none;stroke-width:0.47675975999999998;stroke-linecap:round;stroke-linejoin:round;stroke-miterlimit:4;stroke-dasharray:none;stroke-opacity:1"
       d="M 128.16488,291.72196 C 124.42844,292.3844 118.93246,294.04316 116.10595,296.5758 C 114.00523,299.03764 113.17121,304.04344 113.86916,307.16848 C 116.26624,304.85735 116.8456,304.33156 118.17911,303.02749 C 122.00167,299.57075 126.28,295.68695 129.57133,292.53596 C 128.97175,291.52568 128.85747,291.54631 128.16488,291.72196 z"
       id="path3923"
       sodipodi:nodetypes="cccccc" />
    <path
       style="fill:#3b5263;fill-opacity:1;stroke:none;stroke-width:0.47675975999999998;stroke-linecap:round;stroke-linejoin:round;stroke-miterlimit:4;stroke-dasharray:none;stroke-opacity:1"
       d="M 157.9549,301.05577 C 147.29678,308.93351 135.36562,318.1421 124.9411,326.3115 C 126.24166,327.72002 130.74215,330.54836 131.63487,331.21332 C 134.64613,328.87022 138.43269,326.27601 140.55396,324.53024 C 150.75395,316.99892 154.12971,314.52542 164.14761,306.75435 C 162.90726,305.38102 161.63999,304.78537 160.90104,303.79314 C 160.00683,303.14002 159.33762,302.06323 157.9549,301.05577 z"
       id="path3931"
       sodipodi:nodetypes="ccccccc" />
    <path
       style="fill:none;stroke:#000000;stroke-width:2;stroke-linecap:round;stroke-linejoin:miter;stroke-miterlimit:4;stroke-opacity:1;stroke-dasharray:none;stroke-dashoffset:0;marker:none;visibility:visible;display:inline;overflow:visible;enable-background:accumulate"
       d="m 113.58252,300.8608 c 2.75894,-12.13467 8.84059,-26.83991 19.45011,-33.93452 3.171,-2.25338 7.33378,-1.90973 10.97993,-1.36328 7.3427,1.38216 13.51047,6.21305 18.14867,11.87857 6.2223,6.85819 11.06281,14.90425 14.61376,23.43848"
       id="path3727"
       inkscape:connector-curvature="0"
       sodipodi:nodetypes="ccccc" />
    <path
       style="fill:#6286a0;fill-opacity:1;stroke:none;stroke-width:0.47675975999999998;stroke-linecap:round;stroke-linejoin:round;stroke-miterlimit:4;stroke-dasharray:none;stroke-opacity:1"
       d="M 343.35024,348.9016 C 331.66847,352.14777 319.97218,355.64369 307.96415,357.51959 C 303.84455,358.10792 299.58121,358.1242 295.49548,358.97315 C 294.53257,360.18595 296.56059,361.50714 296.88278,362.69102 C 304.64781,374.85447 307.5976,389.2723 309.98228,403.30862 C 311.16604,411.76311 311.60929,420.57062 309.5301,428.89792 C 310.02318,430.53934 312.3924,429.80426 313.64171,430.37305 C 327.10323,433.11141 339.95396,438.62921 353.62334,440.52384 C 362.49398,441.81362 371.60435,441.71007 380.53421,440.86064 C 382.95176,440.35948 385.70133,440.39076 387.82796,439.08866 C 388.75536,435.01935 388.29095,430.71304 388.3305,426.5543 C 388.22939,418.82233 385.24411,411.40807 381.51089,404.75202 C 378.60738,399.37261 373.22615,396.0993 367.79563,393.7331 C 362.45373,391.00771 356.57953,389.05879 350.51172,389.56508 C 344.6658,389.78431 338.33353,390.4555 333.76539,394.47189 C 332.15182,395.5899 330.59494,397.22262 328.88853,397.98799 C 328.64872,397.17635 330.08488,396.5342 330.51725,395.95987 C 333.40752,393.38762 336.85987,391.31093 340.36056,389.78375 C 341.17262,385.60278 340.61752,381.21569 341.01568,376.96158 C 341.37348,369.10231 341.87644,361.25448 343.67429,353.57482 C 343.81454,352.14349 344.42265,350.67247 344.18457,349.23931 C 343.94782,348.93898 343.70034,348.84381 343.35024,348.9016 z"
       id="path3870" />
    <path
       style="fill:#3b5263;fill-opacity:1;stroke:none;stroke-width:1;stroke-linecap:round;stroke-linejoin:round;stroke-miterlimit:4;stroke-dasharray:none;stroke-opacity:1"
       d="M 356.85517,389.783 C 355.21179,390.95858 357.77699,392.02286 358.6368,392.54451 C 364.56987,396.43083 369.00595,399.46364 372.29073,410.00057 C 374.26856,418.01313 375.994,432.68121 374.9357,440.94524 C 375.74224,442.47284 381.56209,440.60591 382.96586,440.65826 C 384.74524,440.15223 387.2101,440.21574 388.30084,438.62919 C 388.27947,430.55616 388.81764,422.18759 385.82518,414.53413 C 383.39604,407.44468 379.95251,399.83529 372.90048,396.29943 C 367.90515,393.57683 362.74885,390.78137 357.10262,389.7434 L 356.85517,389.783 z"
       id="path3877"
       sodipodi:nodetypes="cccccccccc" />
    <path
       style="fill:#3b5263;fill-opacity:1;stroke:none;stroke-width:1;stroke-linecap:round;stroke-linejoin:round;stroke-miterlimit:4;stroke-dasharray:none;stroke-opacity:1"
       d="M 343.21527,348.58427 C 340.19217,349.41742 337.09382,350.28253 334.20636,351.44263 C 333.18521,354.49676 333.76611,358.0742 333.54638,361.34268 C 333.49445,371.49178 333.58599,381.7218 334.69012,391.78866 C 336.00297,392.83915 337.48702,390.97461 338.86138,390.67019 C 339.93637,390.44638 340.81809,389.74365 340.63947,388.50255 C 340.8107,377.45135 341.08107,366.35947 343.19605,355.49301 C 343.44844,353.37519 344.26366,351.18145 344.18601,349.02968 C 344.01752,348.66853 343.57883,348.51574 343.21527,348.58427 z"
       id="path3868" />
    <path
       style="fill:#462365;fill-opacity:1;stroke:none;stroke-width:1.5;stroke-linecap:round;stroke-linejoin:round;stroke-miterlimit:4;stroke-dasharray:none;stroke-opacity:1"
       d="M 287.7405,112.23931 C 286.18923,113.98278 286.92471,119.93171 286.87798,122.11716 C 287.22098,124.32821 290.57875,121.69524 290.96264,120.49836 C 291.66488,118.50027 290.72738,115.63019 289.33119,114.23582 C 289.57601,113.89456 287.91208,112.19483 287.7405,112.23931 z"
       id="path4016"
       sodipodi:nodetypes="ccccc" />
    <path
       sodipodi:nodetypes="ccccccccccccccccccscccccscssscccccccccccccccccccc"
       id="path3260"
       d="M 225.5608,30.958699 C 218.89009,32.617381 211.55119,35.77325 206.09125,39.411163 C 200.76149,36.961674 198.88299,37.169515 193.4278,39.353211 C 188.96564,41.101181 185.42809,45.007895 182.10754,48.519751 C 179.94295,50.783343 175.74822,56.8449 174.46541,59.691565 C 172.88609,63.346227 170.6277,66.891106 169.61981,70.747744 C 168.07631,76.416509 167.78504,79.270246 166.71205,85.03731 C 166.23906,86.63707 165.64808,92.942933 165.95547,94.649479 C 166.18699,96.734986 165.93449,101.82596 166.29343,103.90258 C 166.76575,108.55221 166.75861,110.49853 167.23256,115.14803 C 167.49594,117.43052 168.22321,122.81756 168.52097,125.09633 C 169.21393,129.30789 169.9918,131.36043 170.95129,136.15976 C 172.64089,142.18304 175.10393,149.4827 179.6663,155.93144 C 177.09523,147.22471 175.18572,143.73398 174.64062,138.54517 C 174.32944,134.48398 173.26082,132.58071 173.15179,128.98207 C 172.60601,123.54548 172.90933,122.25302 172.65588,117.09772 C 172.89305,113.13377 172.60187,111.88094 173.55357,108.03008 C 174.26706,105.19931 175.97131,103.59363 177.40648,101.04873 C 179.85484,97.089648 181.53388,96.330247 184.78789,93.021214 C 187.35496,90.394681 189.25516,89.072826 190.8372,86.824324 C 193.00394,83.840502 193.43586,83.591057 195.20374,79.246849 C 198.65896,83.804397 201.48765,85.802885 203.49308,86.403074 C 205.162,86.923221 209.08278,88.206276 210.75698,88.714227 C 213.95664,89.620931 217.41553,89.816381 220.7343,90.022891 C 226.54204,90.574204 233.54496,89.303307 239.32512,90.133002 C 242.50975,90.570963 246.23962,89.869266 249.25551,91.006582 C 253.77059,92.651173 255.89142,93.010986 259.79657,95.685252 C 262.848,97.77489 265.81437,100.19152 269.21354,103.08529 C 272.52621,105.90543 275.37944,109.74847 277.31641,113.65687 C 278.75364,116.34749 279.71679,119.49679 280.64306,122.40065 C 281.13111,123.71024 281.68299,127.97121 282.16016,129.28442 C 282.69548,130.25241 283.66833,143.74444 283.62221,142.66815 C 283.90808,141.04438 285.3474,136.35958 286.0647,130.89727 C 286.50314,126.09695 286.94158,122.75531 286.88282,119.6568 C 286.9003,116.70569 286.82915,114.35599 287.60993,110.48431 C 289.45061,115.48076 290.91319,114.04447 292.1077,125.80721 C 293.96312,132.97119 292.07434,144.38478 292.10212,143.36034 C 297.55489,130.65678 298.03148,127.71708 299.41874,120.28952 C 299.85911,115.95794 302.49055,102.92049 302.46676,98.562526 C 302.3841,93.706465 303.0677,83.047966 301.5136,76.531965 C 300.6269,73.205702 299.65812,68.03105 298.53635,64.777434 C 297.43817,61.666113 296.03227,58.441799 294.5702,55.485354 C 292.90333,52.259423 290.88139,48.713579 288.59765,45.877877 C 286.77362,43.558466 284.87648,41.529316 282.45851,39.840387 C 280.36685,38.294746 276.64095,36.041878 274.42913,34.6769 C 270.47811,32.566423 265.21685,30.481339 260.78491,29.781709 C 255.62333,28.886869 251.12073,29.106165 245.9029,28.671738 C 243.56648,28.563609 239.99878,28.901481 237.66609,29.043069 C 237.03781,29.19538 230.71922,29.712365 225.5608,30.958699 z"
       style="fill:none;fill-rule:evenodd;stroke:#000000;stroke-width:2;stroke-linecap:butt;stroke-linejoin:miter;stroke-miterlimit:4;stroke-dasharray:none;stroke-opacity:1" />
    <path
       id="path3268"
       d="M 218.8293,122.09089 C 219.7757,121.52396 222.09577,120.50712 223.51704,119.68416 C 225.48186,118.54647 227.39313,117.14204 229.37673,116.16002 C 231.45877,115.12925 233.57294,113.97934 235.23641,112.37801 C 236.74781,110.92308 238.34269,109.65667 240.00229,108.25219 C 241.26776,107.18125 242.19767,106.09478 243.20558,104.98591 C 244.26349,103.82205 245.36035,103.06952 246.25262,101.89154"
       style="fill:none;fill-rule:evenodd;stroke:#000000;stroke-width:2.5;stroke-linecap:round;stroke-linejoin:miter;marker-start:none;stroke-miterlimit:4;stroke-dasharray:none;stroke-opacity:1" />
    <path
       id="path3276"
       d="M 181.17107,102.32132 C 181.82127,104.59305 183.68002,109.6031 185.26835,111.33477 C 186.2553,112.26692 188.09525,114.91925 189.19268,115.71152 C 191.53968,118.17888 196.74368,120.34613 197.18753,120.45775"
       style="fill:none;fill-rule:evenodd;stroke:#000000;stroke-width:2.5;stroke-linecap:round;stroke-linejoin:miter;stroke-miterlimit:4;stroke-dasharray:none;stroke-opacity:1"
       sodipodi:nodetypes="cccc" />
    <path
       style="fill:none;fill-rule:evenodd;stroke:#000000;stroke-width:2;stroke-linecap:round;stroke-linejoin:miter;stroke-miterlimit:4;stroke-dasharray:none;stroke-opacity:1"
       d="M 173.04562,109.20138 C 175.7345,120.15487 180.72958,129.87605 188.91768,138.29659 C 198.95062,147.48574 212.17567,150.57114 225.10309,148.31179 C 246.86043,145.73681 264.40402,137.69549 278.54678,116.40767 L 279.07741,118.23397"
       id="path3397"
       sodipodi:nodetypes="ccccc" />
    <path
       style="fill:none;fill-rule:evenodd;stroke:#000000;stroke-width:1.79999995;stroke-linecap:round;stroke-linejoin:round;stroke-miterlimit:4;stroke-dasharray:none;stroke-opacity:1"
       d="M 176.24893,119.68785 C 176.39227,114.93672 181.24084,113.68205 182.79735,117.59631 C 188.19571,125.53909 199.07325,130.31939 208.11146,130.22939 C 220.61534,130.26994 230.90356,126.43993 240.11163,120.55048 C 247.46157,115.98468 255.50678,108.97244 262.8529,106.79723 C 270.01274,105.25539 277.32064,117.97773 274.03861,121.73163 C 273.86981,122.45179 273.61879,123.15321 273.28528,123.81368"
       id="path3436"
       sodipodi:nodetypes="ccccccc" />
    <path
       style="fill:none;fill-rule:evenodd;stroke:#000000;stroke-width:1.79999995;stroke-linecap:round;stroke-linejoin:miter;stroke-miterlimit:4;stroke-dasharray:none;stroke-opacity:1"
       d="M 219.09442,149.02085 L 236.79802,165.94456 L 245.15783,143.6823"
       id="path3455"
       sodipodi:nodetypes="ccc" />
    <path
       style="fill:none;fill-rule:evenodd;stroke:#000000;stroke-width:1.79999995;stroke-linecap:round;stroke-linejoin:miter;stroke-miterlimit:4;stroke-dasharray:none;stroke-opacity:1"
       d="M 360.99443,173.0323 C 357.85377,172.09976 355.44745,167.35234 357.40915,163.3927 C 360.53661,156.34073 365.93504,150.58482 373.45336,148.76257 C 378.76321,147.66527 384.04765,150.70987 387.83089,154.18725 C 392.84825,159.92062 392.2624,168.30767 388.88678,175.06854 C 385.12979,182.68594 375.46674,185.51779 369.87001,183.88037 C 364.62636,182.15338 359.51181,177.3107 361.51407,171.77302 C 362.47648,169.19756 362.72268,165.72188 364.91849,163.93761 L 364.98593,163.90816"
       id="path3485"
       sodipodi:nodetypes="ccccccccc" />
    <path
       style="fill:none;fill-rule:evenodd;stroke:#000000;stroke-width:1.79999995;stroke-linecap:butt;stroke-linejoin:miter;stroke-miterlimit:4;stroke-dasharray:none;stroke-opacity:1"
       d="M 300.52393,113.86252 C 307.06397,110.14282 315.12759,106.81665 322.36231,109.87249 C 331.35173,113.75436 338.4192,122.48238 344.2748,129.32623 C 351.56794,137.53898 356.25717,145.60423 362.78473,154.41065 L 362.6579,154.50574 L 363.01318,155.14078"
       id="path3497"
       sodipodi:nodetypes="cccccc" />
    <path
       style="fill:none;fill-rule:evenodd;stroke:#000000;stroke-width:1.79999995;stroke-linecap:round;stroke-linejoin:miter;stroke-miterlimit:4;stroke-dasharray:none;stroke-opacity:1"
       d="M 302.56403,94.052856 C 313.96049,86.507384 330.76945,86.781778 340.60378,96.875084 C 349.05031,104.21158 354.14905,113.19022 360.4874,123.16996 C 366.44658,133.25405 369.83426,138.6729 374.81032,148.79779"
       id="path3506"
       sodipodi:nodetypes="cccc" />
    <path
       style="fill:none;fill-rule:evenodd;stroke:#000000;stroke-width:1.79999995;stroke-linecap:round;stroke-linejoin:miter;stroke-miterlimit:4;stroke-dasharray:none;stroke-opacity:1"
       d="M 97.486771,160.89856 C 102.59602,165.82561 108.39609,172.16563 106.78679,179.87737 C 105.10318,188.28905 95.287389,187.86554 88.448933,187.39819 C 81.169796,185.80984 78.888337,178.25033 77.834776,171.96717 C 76.81367,161.71558 84.118779,150.2696 95.113922,149.41713 C 104.6118,149.20059 112.8247,156.66574 113.54312,166.4096 C 113.87081,170.84487 113.06307,178.38866 107.24379,178.61015"
       id="path3514"
       sodipodi:nodetypes="ccccccc" />
    <path
       style="fill:none;fill-rule:evenodd;stroke:#000000;stroke-width:1.79999995;stroke-linecap:round;stroke-linejoin:miter;stroke-miterlimit:4;stroke-dasharray:none;stroke-opacity:1"
       d="M 105.96332,152.67792 C 111.84746,144.54287 117.1939,136.03934 123.74991,128.314 C 129.33624,121.31274 135.97125,115.25786 144.57947,112.68969 C 149.70808,111.12525 152.93515,112.23713 156.87427,114.04806 C 160.98703,116.32297 164.60069,119.29176 168.0091,122.08517"
       id="path3521"
       sodipodi:nodetypes="ccccc" />
    <path
       style="opacity:1;fill:none;fill-opacity:1;fill-rule:evenodd;stroke:#000000;stroke-width:1.79999995;stroke-linecap:round;stroke-linejoin:miter;marker:none;marker-start:none;marker-mid:none;marker-end:none;stroke-miterlimit:4;stroke-dasharray:none;stroke-dashoffset:0;stroke-opacity:1;visibility:visible;display:inline;overflow:visible;enable-background:accumulate"
       d="M 91.971695,149.604 C 96.938649,135.97051 105.61955,118.63079 111.10644,110.72238 C 117.53094,100.20809 129.56321,90.359422 142.22834,89.238269 C 150.95588,89.073525 158.23222,91.903286 165.105,98.22574"
       id="path3544"
       sodipodi:nodetypes="cccc" />
    <path
       style="opacity:1;fill:none;fill-opacity:1;fill-rule:evenodd;stroke:#000000;stroke-width:1.79999995;stroke-linecap:round;stroke-linejoin:miter;marker:none;marker-start:none;marker-mid:none;marker-end:none;stroke-miterlimit:4;stroke-dasharray:none;stroke-dashoffset:0;stroke-opacity:1;visibility:visible;display:inline;overflow:visible;enable-background:accumulate"
       d="M 189.49343,139.17318 C 189.55615,139.5872 189.61887,140.00121 189.68159,140.41523 C 189.95496,142.21972 189.86976,144.41652 189.86976,146.21146 C 189.86976,149.3723 190.5406,152.40171 191.06145,155.45782 C 191.49506,158.00206 192.49103,160.51402 193.13122,162.97911 C 193.7195,165.24431 195.15503,167.26261 195.95365,169.39636 C 196.321,170.37787 196.96726,171.41224 197.14533,171.67345"
       id="path3552" />
    <path
       style="opacity:1;fill:none;fill-opacity:1;fill-rule:evenodd;stroke:#000000;stroke-width:1.79999995;stroke-linecap:round;stroke-linejoin:miter;marker:none;marker-start:none;marker-mid:none;marker-end:none;stroke-miterlimit:4;stroke-dasharray:none;stroke-dashoffset:0;stroke-opacity:1;visibility:visible;display:inline;overflow:visible;enable-background:accumulate"
       d="M 172.8725,122.61254 C 173.65876,124.71327 174.72635,128.54636 175.38132,130.96186 C 176.21272,134.02806 176.89644,135.30263 177.95286,137.79313 C 179.03817,140.35174 179.87346,141.48915 180.90072,144.07237 C 182.05307,146.97013 183.11614,149.96201 184.47579,152.76671 C 185.60459,155.09519 186.24162,156.48224 187.67454,158.63194 C 189.12582,160.80919 189.98232,162.57842 191.50049,164.70418 C 192.80129,166.52556 193.31784,167.20768 194.69923,168.84434 C 195.20747,169.44649 196.63912,171.34191 197.14534,171.94946"
       id="path3554"
       sodipodi:nodetypes="csssssssc" />
    <path
       style="opacity:1;fill:none;fill-opacity:1;fill-rule:evenodd;stroke:#000000;stroke-width:1.79999995;stroke-linecap:round;stroke-linejoin:miter;marker:none;marker-start:none;marker-mid:none;marker-end:none;stroke-miterlimit:4;stroke-dasharray:none;stroke-dashoffset:0;stroke-opacity:1;visibility:visible;display:inline;overflow:visible;enable-background:accumulate"
       d="M 214.37669,157.90549 C 219.711,162.18306 220.54976,166.02433 220.58142,168.13398 C 220.65984,170.14654 217.38753,181.61488 219.70675,186.22754 C 222.09436,190.75692 223.88356,192.72845 230.25538,196.52867 C 233.5379,198.54829 234.12118,199.38792 236.16257,201.67988 C 238.12183,203.87605 238.97208,205.82821 240.26593,208.79711 C 241.52776,211.69252 243.40815,215.95502 244.03659,219.0866 C 244.64152,222.10099 245.36741,224.90239 245.36741,224.90239"
       id="path3556"
       sodipodi:nodetypes="cccccccc" />
    <path
       style="opacity:1;fill:none;fill-opacity:1;fill-rule:evenodd;stroke:#000000;stroke-width:1.79999995;stroke-linecap:round;stroke-linejoin:miter;marker:none;marker-start:none;marker-mid:none;marker-end:none;stroke-miterlimit:4;stroke-dasharray:none;stroke-dashoffset:0;stroke-opacity:1;visibility:visible;display:inline;overflow:visible;enable-background:accumulate"
       d="M 189.9025,141.07925 C 198.01854,144.67653 204.48184,150.87276 211.70213,155.86975 C 212.3829,156.4327 213.04332,157.02071 213.67355,157.63989"
       id="path3565" />
    <path
       style="fill:none;fill-rule:evenodd;stroke:#000000;stroke-width:1.79999995;stroke-linecap:round;stroke-linejoin:miter;stroke-miterlimit:4;stroke-dasharray:none;stroke-opacity:1"
       d="M 286.86838,124.03558 L 291.5097,120.37844"
       id="path3576" />
    <path
       style="opacity:1;fill:none;fill-opacity:1;fill-rule:evenodd;stroke:#000000;stroke-width:1.79999995;stroke-linecap:round;stroke-linejoin:miter;marker:none;marker-start:none;marker-mid:none;marker-end:none;stroke-miterlimit:4;stroke-dasharray:none;stroke-dashoffset:0;stroke-opacity:1;visibility:visible;display:inline;overflow:visible;enable-background:accumulate"
       d="M 327.82487,352.42399 C 327.42734,344.88875 327.08304,337.47013 325.72831,328.66493 C 323.58762,313.00514 316.61457,289.87556 311.4054,272.31015 C 309.93391,264.31093 310.07377,251.34071 304.43226,239.21528 C 291.92213,220.16592 291.1116,200.81435 287.0479,181.19048 C 284.6896,168.37613 278.284,152.80699 271.00009,139.94891 L 282.28979,128.93437"
       id="path3589"
       sodipodi:nodetypes="ccccccc" />
    <path
       style="opacity:1;fill:none;fill-opacity:1;fill-rule:evenodd;stroke:#000000;stroke-width:1.79999995;stroke-linecap:round;stroke-linejoin:miter;marker:none;marker-start:none;marker-mid:none;marker-end:none;stroke-miterlimit:4;stroke-dasharray:none;stroke-dashoffset:0;stroke-opacity:1;visibility:visible;display:inline;overflow:visible;enable-background:accumulate"
       d="M 195.10829,263.9488 C 196.55833,258.32375 199.62796,253.06665 203.65553,248.79123 C 206.24588,247.16989 206.98289,247.79043 209.78572,248.01602 C 215.41811,248.91225 221.91036,250.44944 228.55442,251.82325 C 236.55581,253.29577 245.42678,256.55403 251.54957,259.99094 C 258.38783,263.82241 265.68774,268.9737 272.25451,274.23019"
       id="path3605"
       sodipodi:nodetypes="cccccc" />
    <path
       style="opacity:1;fill:none;fill-opacity:1;fill-rule:evenodd;stroke:#000000;stroke-width:1.79999995;stroke-linecap:round;stroke-linejoin:miter;marker:none;marker-start:none;marker-mid:none;marker-end:none;stroke-miterlimit:4;stroke-dasharray:none;stroke-dashoffset:0;stroke-opacity:1;visibility:visible;display:inline;overflow:visible;enable-background:accumulate"
       d="M 177.35839,257.84867 C 179.25621,242.24033 184.05023,219.94718 193.09116,216.56169 C 207.46984,212.29404 222.39458,218.09885 233.27269,221.2702 C 241.93529,224.36503 245.88775,225.39486 255.50814,229.28154"
       id="path3612"
       sodipodi:nodetypes="cccc" />
    <path
       style="opacity:1;fill:none;fill-opacity:1;fill-rule:evenodd;stroke:#000000;stroke-width:2;stroke-linecap:round;stroke-linejoin:miter;marker:none;marker-start:none;marker-mid:none;marker-end:none;stroke-miterlimit:4;stroke-dasharray:none;stroke-dashoffset:0;stroke-opacity:1;visibility:visible;display:inline;overflow:visible;enable-background:accumulate"
       d="M 215.15994,286.6655 C 203.12672,294.27414 201.76212,309.57987 196.73581,321.58725 C 192.74491,331.13247 193.47055,343.43536 185.43042,350.83801"
       id="path3620" />
    <path
       style="opacity:1;fill:none;fill-opacity:1;fill-rule:evenodd;stroke:#000000;stroke-width:2;stroke-linecap:round;stroke-linejoin:miter;marker:none;marker-start:none;marker-mid:none;marker-end:none;stroke-miterlimit:4;stroke-dasharray:none;stroke-dashoffset:0;stroke-opacity:1;visibility:visible;display:inline;overflow:visible;enable-background:accumulate"
       d="M 190.32261,343.93854 C 191.3843,337.47938 189.16069,333.80672 186.254,329.69318 C 183.4796,324.77291 178.88915,323.25443 174.48039,319.65051 C 169.98772,315.7565 166.44138,308.47317 162.19174,304.32936 C 156.99702,299.56369 151.39737,294.58445 144.22129,293.29923 C 135.43929,290.44401 124.97616,289.92735 117.05333,295.35573 C 112.92984,298.56133 112.25536,304.51188 114.09101,309.14777 C 115.88204,316.05055 119.09731,322.89713 124.92271,327.2889 C 131.58653,332.69447 139.53503,336.19117 147.35798,339.55186 C 153.21753,341.63907 158.07471,343.82337 163.24281,347.3997 C 168.7967,350.33014 176.33097,351.52601 182.5982,351.49071 C 183.65577,351.35669 184.69921,351.04076 185.61858,350.4938"
       id="path3745"
       sodipodi:nodetypes="cccccccccccc" />
    <path
       style="fill:none;stroke:#000000;stroke-width:1.79999995;stroke-linecap:round;stroke-linejoin:miter;stroke-miterlimit:4;stroke-opacity:1;stroke-dasharray:none;stroke-dashoffset:0;marker:none;visibility:visible;display:inline;overflow:visible;enable-background:accumulate"
       d="m 293.62681,358.11388 c 0,0 4.90708,0.21946 7.78047,-0.0973 3.6028,-0.39713 6.99746,-0.89893 11.00589,-1.62779 4.59906,-0.83626 8.53271,-1.76209 13.13525,-2.85739 4.33163,-1.03083 8.43631,-2.30274 12.42179,-3.69786 2.00201,-0.70081 4.31369,-1.38119 6.39749,-1.72507"
       id="path3751"
       inkscape:connector-curvature="0"
       sodipodi:nodetypes="cssssc" />
    <path
       style="opacity:1;fill:none;fill-opacity:1;fill-rule:evenodd;stroke:#000000;stroke-width:1.79999995;stroke-linecap:round;stroke-linejoin:miter;marker:none;marker-start:none;marker-mid:none;marker-end:none;stroke-miterlimit:4;stroke-dasharray:none;stroke-dashoffset:0;stroke-opacity:1;visibility:visible;display:inline;overflow:visible;enable-background:accumulate"
       d="M 308.11526,430.63571 C 311.4769,421.17063 310.38369,413.24508 309.26588,402.75189 C 307.37742,391.94094 304.70081,379.61847 300.11834,369.6918 C 298.2016,365.50738 295.46025,362.3749 293.56409,358.18289"
       id="path3753"
       sodipodi:nodetypes="cccc" />
    <path
       style="fill:none;stroke:#000000;stroke-width:1.79999995;stroke-linecap:round;stroke-linejoin:miter;stroke-miterlimit:4;stroke-opacity:1;stroke-dasharray:none;stroke-dashoffset:0;marker:none;visibility:visible;display:inline;overflow:visible;enable-background:accumulate"
       d="m 344.26892,348.18993 c -1.46373,6.80947 -2.30272,13.89028 -2.65706,19.86861 -0.60204,7.47815 -0.59646,9.87906 -0.94097,17.37202 0.003,1.15373 0.0393,3.57456 0.12174,4.72545"
       id="path3758"
       sodipodi:nodetypes="cccc"
       inkscape:connector-curvature="0" />
    <path
       style="opacity:1;fill:none;fill-opacity:1;fill-rule:evenodd;stroke:#000000;stroke-width:1.79999995;stroke-linecap:round;stroke-linejoin:miter;marker:none;marker-start:none;marker-mid:none;marker-end:none;stroke-miterlimit:4;stroke-dasharray:none;stroke-dashoffset:0;stroke-opacity:1;visibility:visible;display:inline;overflow:visible;enable-background:accumulate"
       d="M 272.30185,274.17682 C 278.66012,281.10291 284.31457,287.77567 289.2413,296.76426 C 294.00808,304.81629 297.50254,313.56751 300.43586,322.3893 C 303.90981,332.75148 307.42535,340.94342 310.81223,355.73801"
       id="path3765"
       sodipodi:nodetypes="cccc" />
    <path
       style="fill:none;stroke:#000000;stroke-width:1.79999995;stroke-linecap:round;stroke-linejoin:miter;stroke-miterlimit:4;stroke-opacity:1;stroke-dasharray:none;stroke-dashoffset:0;marker:none;visibility:visible;display:inline;overflow:visible;enable-background:accumulate"
       d="m 328.68756,397.74933 c 3.76228,-3.07384 7.46532,-6.78681 12.49573,-7.52989 7.73245,-1.86544 19.08238,-0.31682 23.31945,1.7289 5.64626,2.52258 13.08613,6.45849 16.05702,10.87085 3.23767,4.50893 5.15588,9.89448 7.05759,16.75095 1.11189,5.25064 1.0642,8.72973 0.91486,11.78598 -0.007,2.75943 -0.16242,5.20164 -0.5471,8.11947"
       id="path3777"
       sodipodi:nodetypes="ccccccc"
       inkscape:connector-curvature="0" />
    <path
       style="fill:none;stroke:#000000;stroke-width:1.79999995;stroke-linecap:round;stroke-linejoin:miter;stroke-miterlimit:4;stroke-opacity:1;stroke-dasharray:none;stroke-dashoffset:0;marker:none;visibility:visible;display:inline;overflow:visible;enable-background:accumulate"
       d="m 308.11837,430.67607 c 6.4364,0.49973 12.34945,1.48284 18.45907,3.50191 8.58589,2.83061 17.30264,5.23834 26.21211,6.79694 9.12202,0.87558 13.88843,1.55753 23.38181,0.67198 3.94502,-0.28134 9.69702,-0.82149 11.78709,-2.21995"
       id="path3781"
       sodipodi:nodetypes="ccccc"
       inkscape:connector-curvature="0" />
    <path
       style="opacity:1;fill:none;fill-opacity:1;fill-rule:evenodd;stroke:#000000;stroke-width:1.79999995;stroke-linecap:round;stroke-linejoin:miter;marker:none;marker-start:none;marker-mid:none;marker-end:none;stroke-miterlimit:4;stroke-dasharray:none;stroke-dashoffset:0;stroke-opacity:1;visibility:visible;display:inline;overflow:visible;enable-background:accumulate"
       d="M 251.06552,187.40616 C 253.31132,191.5494 257.98414,194.06078 261.8608,194.16869"
       id="path3785"
       sodipodi:nodetypes="cs" />
    <path
       style="fill:#5c5c5c;fill-opacity:1;fill-rule:evenodd;stroke:none;stroke-width:1px;stroke-linecap:butt;stroke-linejoin:miter;stroke-opacity:1"
       d="M 29.830517,310.91098 L 109.6183,297.06408 L 127.14914,418.47173 L 47.024222,425.64245 L 29.830517,310.91098 z"
       id="path3790" />
    <path
       style="fill:#5c5c5c;fill-opacity:1;fill-rule:evenodd;stroke:none;stroke-width:1px;stroke-linecap:butt;stroke-linejoin:miter;stroke-opacity:1"
       d="M 213.00529,414.39184 L 222.44497,282.10448 L 277.84691,293.60235 L 266.49681,420.07896 L 213.00529,414.39184 z"
       id="path3794" />
    <path
       style="fill:#5c5c5c;fill-opacity:1;fill-rule:evenodd;stroke:#000000;stroke-width:1.50000000000000000;stroke-linecap:butt;stroke-linejoin:miter;stroke-miterlimit:4;stroke-dasharray:none;stroke-opacity:1"
       d="M 51.356362,429.79357 L 113.1638,426.45548 L 110.91626,385.78021 L 67.313918,385.90384 L 67.313918,409.39412 L 48.996441,408.77595 L 51.356362,429.79357 z"
       id="path3812" />
    <path
       sodipodi:type="arc"
       style="fill:#5c5c5c;fill-opacity:1;stroke:#000000;stroke-width:1.50000000000000000;stroke-linecap:round;stroke-linejoin:round;stroke-miterlimit:4;stroke-dasharray:none;stroke-opacity:1"
       id="path3806"
       sodipodi:cx="107.37637"
       sodipodi:cy="432.76077"
       sodipodi:rx="7.0235724"
       sodipodi:ry="6.5525517"
       d="M 114.39995,432.76077 A 7.0235724,6.5525517 0 1 1 100.3528,432.76077 A 7.0235724,6.5525517 0 1 1 114.39995,432.76077 z"
       transform="matrix(0.8938376,-0.4296506,0.5070476,1.0548532,-208.03099,21.22152)" />
    <path
       sodipodi:type="arc"
       style="fill:#5c5c5c;fill-opacity:1;stroke:#000000;stroke-width:1.50000000000000000;stroke-linecap:round;stroke-linejoin:round;stroke-miterlimit:4;stroke-dasharray:none;stroke-opacity:1"
       id="path3804"
       sodipodi:cx="69.617653"
       sodipodi:cy="433.50256"
       sodipodi:rx="7.023572"
       sodipodi:ry="6.3052859"
       d="M 76.641225,433.50256 A 7.023572,6.3052859 0 1 1 62.594081,433.50256 A 7.023572,6.3052859 0 1 1 76.641225,433.50256 z"
       transform="matrix(0.8895698,-0.4328902,0.5353146,1.1000474,-224.37237,-14.717604)" />
    <path
       style="fill:#5c5c5c;fill-opacity:1;fill-rule:evenodd;stroke:#000000;stroke-width:1.79999995;stroke-linecap:round;stroke-linejoin:miter;stroke-miterlimit:4;stroke-opacity:1;stroke-dasharray:none;stroke-dashoffset:0;marker:none;visibility:visible;display:inline;overflow:visible;enable-background:accumulate"
       d="m 203.40266,421.51016 c -6.75852,-1.49773 -7.89311,-10.30121 -4.19259,-15.24993 5.39279,-8.62321 11.45396,-11.01146 20.79144,-10.9261 5.38807,0.35354 15.1773,-0.95372 20.77573,4.44584 3.72263,4.69348 5.89304,11.84923 14.00512,12.59611 7.25268,0.7651 9.39903,13.71532 0.90678,12.91365 -10.69962,-0.50189 -20.6903,-1.35176 -31.04905,-1.75208 -5.08344,-0.39314 -15.79714,-1.91693 -20.9003,-1.78023"
       id="path3814"
       sodipodi:nodetypes="cccccccc"
       inkscape:connector-curvature="0" />
    <path
       sodipodi:type="arc"
       style="fill:#5c5c5c;fill-opacity:1;stroke:#000000;stroke-width:1.50000000000000000;stroke-linecap:round;stroke-linejoin:round;stroke-miterlimit:4;stroke-dasharray:none;stroke-opacity:1"
       id="path3810"
       sodipodi:cx="245.5441"
       sodipodi:cy="422.93195"
       sodipodi:rx="6.0683665"
       sodipodi:ry="7.3561664"
       d="M 251.61246,422.93195 A 6.0683665,7.3561664 0 1 1 239.47573,422.93195 A 6.0683665,7.3561664 0 1 1 251.61246,422.93195 z"
       transform="matrix(0.8714233,0.4905318,-0.4905318,0.8714233,239.03284,-66.067991)" />
    <path
       sodipodi:type="arc"
       style="fill:#5c5c5c;fill-opacity:1;stroke:#000000;stroke-width:1.50000000000000000;stroke-linecap:round;stroke-linejoin:round;stroke-miterlimit:4;stroke-dasharray:none;stroke-opacity:1"
       id="path3808"
       sodipodi:cx="209.86435"
       sodipodi:cy="422.62286"
       sodipodi:rx="6.6864409"
       sodipodi:ry="8.2834139"
       d="M 216.55079,422.62286 A 6.6864409,8.2834139 0 1 1 203.17791,422.62286 A 6.6864409,8.2834139 0 1 1 216.55079,422.62286 z"
       transform="matrix(0.8687335,0.4186009,-0.400675,0.8315315,196.60165,-15.970787)" />
    <path
       sodipodi:type="arc"
       style="fill:#5c5c5c;fill-opacity:1;stroke:#000000;stroke-width:1.50000000000000000;stroke-linecap:round;stroke-linejoin:round;stroke-miterlimit:4;stroke-dasharray:none;stroke-opacity:1"
       id="path3818"
       sodipodi:cx="150.36064"
       sodipodi:cy="452.67029"
       sodipodi:rx="3.3713148"
       sodipodi:ry="10.261543"
       d="M 153.73196,452.67029 A 3.3713148,10.261543 0 1 1 146.98933,452.67029 A 3.3713148,10.261543 0 1 1 153.73196,452.67029 z"
       transform="matrix(0.9784851,-0.2063173,0.2063173,0.9784851,-144.32452,37.175787)" />
    <path
       sodipodi:type="arc"
       style="fill:#5c5c5c;fill-opacity:1;stroke:#000000;stroke-width:1.50000000000000000;stroke-linecap:round;stroke-linejoin:round;stroke-miterlimit:4;stroke-dasharray:none;stroke-opacity:1"
       id="path3820"
       sodipodi:cx="150.36064"
       sodipodi:cy="452.67029"
       sodipodi:rx="3.3713148"
       sodipodi:ry="10.261543"
       d="M 153.73196,452.67029 A 3.3713148,10.261543 0 1 1 146.98933,452.67029 A 3.3713148,10.261543 0 1 1 153.73196,452.67029 z"
       transform="matrix(0.9935167,-0.1136863,0.1136863,0.9935167,-61.020307,-13.342268)" />
    <path
       sodipodi:type="arc"
       style="fill:#5c5c5c;fill-opacity:1;stroke:#000000;stroke-width:1.50000000000000000;stroke-linecap:round;stroke-linejoin:round;stroke-miterlimit:4;stroke-dasharray:none;stroke-opacity:1"
       id="path3822"
       sodipodi:cx="150.36064"
       sodipodi:cy="452.67029"
       sodipodi:rx="3.3713148"
       sodipodi:ry="10.261543"
       d="M 153.73196,452.67029 A 3.3713148,10.261543 0 1 1 146.98933,452.67029 A 3.3713148,10.261543 0 1 1 153.73196,452.67029 z"
       transform="matrix(0.9848388,0.1734721,-0.1734721,0.9848388,101.0309,-24.744221)" />
    <path
       sodipodi:type="arc"
       style="fill:#5c5c5c;fill-opacity:1;stroke:#000000;stroke-width:1.50000000000000000;stroke-linecap:round;stroke-linejoin:round;stroke-miterlimit:4;stroke-dasharray:none;stroke-opacity:1"
       id="path3824"
       sodipodi:cx="150.36064"
       sodipodi:cy="452.67029"
       sodipodi:rx="3.3713148"
       sodipodi:ry="10.261543"
       d="M 153.73196,452.67029 A 3.3713148,10.261543 0 1 1 146.98933,452.67029 A 3.3713148,10.261543 0 1 1 153.73196,452.67029 z"
       transform="matrix(0.998188,-6.0171172e-2,6.0171172e-2,0.998188,47.785571,-1.4158616)" />
    <path
       sodipodi:type="arc"
       style="fill:#5c5c5c;fill-opacity:1;stroke:#000000;stroke-width:1.50000000000000000;stroke-linecap:round;stroke-linejoin:round;stroke-miterlimit:4;stroke-dasharray:none;stroke-opacity:1"
       id="path3826"
       sodipodi:cx="150.36064"
       sodipodi:cy="452.67029"
       sodipodi:rx="3.3713148"
       sodipodi:ry="10.261543"
       d="M 153.73196,452.67029 A 3.3713148,10.261543 0 1 1 146.98933,452.67029 A 3.3713148,10.261543 0 1 1 153.73196,452.67029 z"
       transform="matrix(0.9749539,0.222407,-0.222407,0.9749539,224.39981,-38.905893)" />
    <path
       sodipodi:type="arc"
       style="fill:#5c5c5c;fill-opacity:1;stroke:#000000;stroke-width:1.50000000000000000;stroke-linecap:round;stroke-linejoin:round;stroke-miterlimit:4;stroke-dasharray:none;stroke-opacity:1"
       id="path3828"
       sodipodi:cx="150.36064"
       sodipodi:cy="452.67029"
       sodipodi:rx="3.3713148"
       sodipodi:ry="10.261543"
       d="M 153.73196,452.67029 A 3.3713148,10.261543 0 1 1 146.98933,452.67029 A 3.3713148,10.261543 0 1 1 153.73196,452.67029 z"
       transform="matrix(0.9279952,0.372592,-0.372592,0.9279952,323.46367,-15.875313)" />
    <path
       sodipodi:type="arc"
       style="fill:#5c5c5c;fill-opacity:1;stroke:#000000;stroke-width:1.50000000000000000;stroke-linecap:round;stroke-linejoin:round;stroke-miterlimit:4;stroke-dasharray:none;stroke-opacity:1"
       id="path3830"
       sodipodi:cx="150.36064"
       sodipodi:cy="452.67029"
       sodipodi:rx="3.3713148"
       sodipodi:ry="10.261543"
       d="M 153.73196,452.67029 A 3.3713148,10.261543 0 1 1 146.98933,452.67029 A 3.3713148,10.261543 0 1 1 153.73196,452.67029 z"
       transform="matrix(0.9868159,0.1618464,-0.1618464,0.9868159,333.13206,-42.729294)" />
    <path
       sodipodi:type="arc"
       style="fill:#5c5c5c;fill-opacity:1;stroke:#000000;stroke-width:1.50000000000000000;stroke-linecap:round;stroke-linejoin:round;stroke-miterlimit:4;stroke-dasharray:none;stroke-opacity:1"
       id="path3832"
       sodipodi:cx="156.14806"
       sodipodi:cy="439.2276"
       sodipodi:rx="4.4388976"
       sodipodi:ry="4.6362395"
       d="M 160.58695,439.2276 A 4.4388976,4.6362395 0 1 1 151.70916,439.2276 A 4.4388976,4.6362395 0 1 1 160.58695,439.2276 z"
       transform="translate(16.968951,-4.5744228)" />
    <path
       sodipodi:type="arc"
       style="fill:#5c5c5c;fill-opacity:1;stroke:#000000;stroke-width:1.50000000000000000;stroke-linecap:round;stroke-linejoin:round;stroke-miterlimit:4;stroke-dasharray:none;stroke-opacity:1"
       id="path3834"
       sodipodi:cx="156.14806"
       sodipodi:cy="439.2276"
       sodipodi:rx="4.4388976"
       sodipodi:ry="4.6362395"
       d="M 160.58695,439.2276 A 4.4388976,4.6362395 0 1 1 151.70916,439.2276 A 4.4388976,4.6362395 0 1 1 160.58695,439.2276 z"
       transform="translate(68.429969,-8.7547704)" />
    <path
       sodipodi:type="arc"
       style="fill:#5c5c5c;fill-opacity:1;stroke:#000000;stroke-width:1.50000000000000000;stroke-linecap:round;stroke-linejoin:round;stroke-miterlimit:4;stroke-dasharray:none;stroke-opacity:1"
       id="path3836"
       sodipodi:cx="156.14806"
       sodipodi:cy="439.2276"
       sodipodi:rx="4.4388976"
       sodipodi:ry="4.6362395"
       d="M 160.58695,439.2276 A 4.4388976,4.6362395 0 1 1 151.70916,439.2276 A 4.4388976,4.6362395 0 1 1 160.58695,439.2276 z"
       transform="translate(117.0294,-14.428368)" />
    <path
       sodipodi:type="arc"
       style="fill:#5c5c5c;fill-opacity:1;stroke:#000000;stroke-width:1.50000000000000000;stroke-linecap:round;stroke-linejoin:round;stroke-miterlimit:4;stroke-dasharray:none;stroke-opacity:1"
       id="path3838"
       sodipodi:cx="156.14806"
       sodipodi:cy="439.2276"
       sodipodi:rx="4.4388976"
       sodipodi:ry="4.6362395"
       d="M 160.58695,439.2276 A 4.4388976,4.6362395 0 1 1 151.70916,439.2276 A 4.4388976,4.6362395 0 1 1 160.58695,439.2276 z"
       transform="translate(143.05525,10.529329)" />
    <path
       sodipodi:type="arc"
       style="fill:#5c5c5c;fill-opacity:1;stroke:#000000;stroke-width:1.50000000000000000;stroke-linecap:round;stroke-linejoin:round;stroke-miterlimit:4;stroke-dasharray:none;stroke-opacity:1"
       id="path3840"
       sodipodi:cx="156.14806"
       sodipodi:cy="439.2276"
       sodipodi:rx="4.4388976"
       sodipodi:ry="4.6362395"
       d="M 160.58695,439.2276 A 4.4388976,4.6362395 0 1 1 151.70916,439.2276 A 4.4388976,4.6362395 0 1 1 160.58695,439.2276 z"
       transform="translate(253.97467,-22.734963)" />
    <path
       sodipodi:type="arc"
       style="fill:#5c5c5c;fill-opacity:1;stroke:#000000;stroke-width:1.50000000000000000;stroke-linecap:round;stroke-linejoin:round;stroke-miterlimit:4;stroke-dasharray:none;stroke-opacity:1"
       id="path3842"
       sodipodi:cx="156.14806"
       sodipodi:cy="439.2276"
       sodipodi:rx="4.4388976"
       sodipodi:ry="4.6362395"
       d="M 160.58695,439.2276 A 4.4388976,4.6362395 0 1 1 151.70916,439.2276 A 4.4388976,4.6362395 0 1 1 160.58695,439.2276 z"
       transform="translate(-17.787538,-30.968635)" />
    <path
       sodipodi:type="arc"
       style="fill:#5c5c5c;fill-opacity:1;stroke:#000000;stroke-width:1.50000000000000000;stroke-linecap:round;stroke-linejoin:round;stroke-miterlimit:4;stroke-dasharray:none;stroke-opacity:1"
       id="path3844"
       sodipodi:cx="156.14806"
       sodipodi:cy="439.2276"
       sodipodi:rx="4.4388976"
       sodipodi:ry="4.6362395"
       d="M 160.58695,439.2276 A 4.4388976,4.6362395 0 1 1 151.70916,439.2276 A 4.4388976,4.6362395 0 1 1 160.58695,439.2276 z"
       transform="translate(-62.630418,-1.0856576)" />
    <path
       sodipodi:type="arc"
       style="fill:#5c5c5c;fill-opacity:1;stroke:#000000;stroke-width:1.50000000000000000;stroke-linecap:round;stroke-linejoin:round;stroke-miterlimit:4;stroke-dasharray:none;stroke-opacity:1"
       id="path3846"
       sodipodi:cx="150.36064"
       sodipodi:cy="452.67029"
       sodipodi:rx="3.3713148"
       sodipodi:ry="10.261543"
       d="M 153.73196,452.67029 A 3.3713148,10.261543 0 1 1 146.98933,452.67029 A 3.3713148,10.261543 0 1 1 153.73196,452.67029 z"
       transform="matrix(0.9768998,0.2136977,-0.2136977,0.9768998,384.13042,-48.341857)" />
    <path
       sodipodi:type="arc"
       style="fill:#5c5c5c;fill-opacity:1;stroke:#000000;stroke-width:1.50000000000000000;stroke-linecap:round;stroke-linejoin:round;stroke-miterlimit:4;stroke-dasharray:none;stroke-opacity:1"
       id="path3848"
       sodipodi:cx="156.14806"
       sodipodi:cy="439.2276"
       sodipodi:rx="4.4388976"
       sodipodi:ry="4.6362395"
       d="M 160.58695,439.2276 A 4.4388976,4.6362395 0 1 1 151.70916,439.2276 A 4.4388976,4.6362395 0 1 1 160.58695,439.2276 z"
       transform="matrix(0.9861805,-0.1656747,0.1656747,0.9861805,210.58974,7.5869891)" />
    <path
       sodipodi:type="arc"
       style="fill:#5c5c5c;fill-opacity:1;stroke:#000000;stroke-width:1.50000000000000000;stroke-linecap:round;stroke-linejoin:round;stroke-miterlimit:4;stroke-dasharray:none;stroke-opacity:1"
       id="path3850"
       sodipodi:cx="150.36064"
       sodipodi:cy="452.67029"
       sodipodi:rx="3.3713148"
       sodipodi:ry="10.261543"
       d="M 153.73196,452.67029 A 3.3713148,10.261543 0 1 1 146.98933,452.67029 A 3.3713148,10.261543 0 1 1 153.73196,452.67029 z"
       transform="matrix(0.8877155,0.4603923,-0.4603923,0.8877155,521.02796,-34.758691)" />
    <path
       sodipodi:type="arc"
       style="fill:#5c5c5c;fill-opacity:1;stroke:#000000;stroke-width:1.50000000000000000;stroke-linecap:round;stroke-linejoin:round;stroke-miterlimit:4;stroke-dasharray:none;stroke-opacity:1"
       id="path3852"
       sodipodi:cx="156.14806"
       sodipodi:cy="439.2276"
       sodipodi:rx="4.4388976"
       sodipodi:ry="4.6362395"
       d="M 160.58695,439.2276 A 4.4388976,4.6362395 0 1 1 151.70916,439.2276 A 4.4388976,4.6362395 0 1 1 160.58695,439.2276 z"
       transform="matrix(0.9953343,9.6486178e-2,-9.6486178e-2,0.9953343,338.91358,-25.884164)" />
    <path
       style="fill:none;fill-rule:evenodd;stroke:#000000;stroke-width:1px;stroke-linecap:butt;stroke-linejoin:miter;stroke-opacity:1"
       d="M 119.44461,321.09575 L 151.26099,295.4794"
       id="path3872"
       sodipodi:nodetypes="cc" />
    <path
       style="fill:none;fill-rule:evenodd;stroke:#000000;stroke-width:1px;stroke-linecap:butt;stroke-linejoin:miter;stroke-opacity:1"
       d="M 124.62773,326.44712 L 158.35787,300.56758"
       id="path3874"
       sodipodi:nodetypes="cc" />
    <path
       style="fill:none;fill-rule:evenodd;stroke:#000000;stroke-width:1px;stroke-linecap:butt;stroke-linejoin:miter;stroke-opacity:1"
       d="M 131.00695,331.71074 L 164.09918,306.62076"
       id="path3876"
       sodipodi:nodetypes="cc" />
    <path
       style="fill:none;fill-rule:evenodd;stroke:#000000;stroke-width:1px;stroke-linecap:butt;stroke-linejoin:miter;stroke-opacity:1"
       d="M 137.46592,335.39529 L 168.88359,313.28803"
       id="path3878"
       sodipodi:nodetypes="cc" />
    <path
       style="fill:none;fill-rule:evenodd;stroke:#000000;stroke-width:1px;stroke-linecap:butt;stroke-linejoin:miter;stroke-opacity:1"
       d="M 145.51969,338.90438 L 174.38567,319.60439"
       id="path3880" />
    <path
       style="fill:none;fill-rule:evenodd;stroke:#000000;stroke-width:1px;stroke-linecap:butt;stroke-linejoin:miter;stroke-opacity:1"
       d="M 154.13164,341.79937 L 181.72178,325.04348"
       id="path3882"
       sodipodi:nodetypes="cc" />
    <path
       style="fill:none;fill-rule:evenodd;stroke:#000000;stroke-width:1px;stroke-linecap:butt;stroke-linejoin:miter;stroke-opacity:1"
       d="M 116.09552,314.07757 L 141.69215,292.67213"
       id="path3884"
       sodipodi:nodetypes="cc" />
    <path
       style="fill:#263540;fill-opacity:1;fill-rule:evenodd;stroke:#000000;stroke-width:1px;stroke-linecap:butt;stroke-linejoin:miter;stroke-opacity:1"
       d="M 113.86279,307.23485 L 130.92721,291.2685"
       id="path3886"
       sodipodi:nodetypes="cc" />
    <path
       style="fill:none;fill-rule:evenodd;stroke:#000000;stroke-width:1px;stroke-linecap:butt;stroke-linejoin:miter;stroke-opacity:1"
       d="M 161.06904,345.65938 L 186.74542,330.9212"
       id="path3888"
       sodipodi:nodetypes="cc" />
    <path
       style="fill:none;fill-rule:evenodd;stroke:#000000;stroke-width:1px;stroke-linecap:butt;stroke-linejoin:miter;stroke-opacity:1"
       d="M 168.08619,349.43164 L 190.25399,338.29029"
       id="path3890"
       sodipodi:nodetypes="cc" />
    <path
       style="fill:#ffffff;fill-opacity:1;stroke:none;stroke-width:1.5;stroke-linecap:round;stroke-linejoin:round;stroke-miterlimit:4;stroke-dasharray:none;stroke-opacity:1"
       d="M 263.78406,107.08792 C 261.08593,107.36542 258.72897,108.91346 256.38267,110.15518 C 248.10295,115.01902 240.73724,121.50247 231.9111,125.39877 C 223.82844,129.10899 214.85352,130.90437 205.93695,130.48893 C 198.1044,129.81336 190.31138,126.4244 184.87282,120.67404 C 183.64289,119.42879 182.68725,117.95282 181.71938,116.52138 C 180.61061,115.2332 178.54109,115.50406 177.59358,116.81685 C 176.70062,117.7209 176.54082,119.11013 177.17993,120.20129 C 180.18798,127.14092 184.57216,133.58458 190.09792,138.79197 C 197.57964,145.44979 207.69637,148.80349 217.65351,148.64232 C 224.25653,148.34334 230.81918,147.29021 237.24573,145.7619 C 248.71328,142.9737 259.5683,137.30339 267.8968,128.87762 C 269.84544,126.83121 272.02927,124.89707 273.45926,122.43073 C 274.02032,121.09541 274.73288,119.70677 274.38865,118.18675 C 273.70234,114.20793 271.20878,110.58668 267.90986,108.3074 C 266.69777,107.50593 265.25022,107.00644 263.78406,107.08792 z M 245.59939,126.77678 C 246.41462,127.06085 245.17669,126.7364 245.0783,127.16358 C 245.20655,126.77748 245.04297,126.41046 245.59939,126.77678 z M 257.36436,131.95552 C 256.4165,131.90659 257.85253,131.31197 257.36436,131.95552 z M 232.41618,132.01998 C 231.58219,132.4605 231.94802,131.45127 232.41618,132.01998 z M 195.74064,132.42827 C 194.93891,132.42554 195.7314,131.834 195.74064,132.42827 z M 218.54534,134.28165 C 217.72571,134.35958 218.17175,133.61872 218.54534,134.28165 z M 206.24853,134.89407 C 205.49701,134.99592 205.76098,134.1126 206.24853,134.89407 z M 190.61026,135.46352 C 190.85667,135.92576 192.03303,135.24909 191.28956,135.79572 C 190.87984,136.45841 190.79656,135.69815 190.61026,135.46352 z M 242.23644,138.92854 C 241.10943,138.63812 242.89465,138.14713 242.23644,138.92854 z M 199.34534,140.20174 C 200.52298,140.21553 198.78144,140.71673 199.27487,140.13888 L 199.34534,140.20174 z M 227.0924,142.92004 C 225.87561,142.40962 227.88779,142.22917 227.0924,142.92004 z M 211.87852,142.94153 C 212.14349,143.26234 212.6474,143.45014 213.01204,143.1779 C 212.72684,144.46923 212.26478,143.54612 211.86241,142.93616 L 211.85704,142.92541 L 211.87852,142.94153 z"
       id="path4022" />
    <path
       style="fill:none;fill-rule:evenodd;stroke:#000000;stroke-width:1px;stroke-linecap:round;stroke-linejoin:miter;stroke-opacity:1"
       d="M 186.56197,128.02546 L 190.9372,136.19115 L 195.62495,131.97938 L 199.37514,140.74675 L 206.01612,134.47206 L 212.57897,144.09898 L 218.20426,133.87037 L 227.11098,142.98157 L 232.03312,131.63555 L 242.26803,139.11361 L 245.15881,126.47827 L 257.42508,132.06533 L 259.6127,119.25808"
       id="path3453"
       sodipodi:nodetypes="ccccccccccccc" />
  </g>
</svg>
